<svg version="1.1" viewBox="0.0 0.0 600.0 371.0" fill="none" stroke="none" stroke-linecap="square" stroke-miterlimit="10" width="600" height="371" xmlns:xlink="http://www.w3.org/1999/xlink" xmlns="http://www.w3.org/2000/svg"><path fill="#ffffff" d="M0 0L600.0 0L600.0 371.0L0 371.0L0 0Z" fill-rule="nonzero"/><path stroke="#333333" stroke-width="1.0" stroke-linecap="butt" d="M45.5 332.5L581.5 332.5" fill-rule="nonzero"/><path stroke="#cccccc" stroke-width="1.0" stroke-linecap="butt" d="M45.5 266.5L581.5 266.5" fill-rule="nonzero"/><path stroke="#cccccc" stroke-width="1.0" stroke-linecap="butt" d="M45.5 201.5L581.5 201.5" fill-rule="nonzero"/><path stroke="#cccccc" stroke-width="1.0" stroke-linecap="butt" d="M45.5 135.5L581.5 135.5" fill-rule="nonzero"/><path stroke="#cccccc" stroke-width="1.0" stroke-linecap="butt" d="M45.5 69.5L581.5 69.5" fill-rule="nonzero"/><clipPath id="id_0"><path d="M45.55 69.916664L581.45 69.916664L581.45 332.45L45.55 332.45L45.55 69.916664Z" clip-rule="nonzero"/></clipPath><path stroke="#000000" stroke-width="2.0" stroke-linecap="butt" stroke-opacity="0.0" clip-path="url(#id_0)" d="M169.0 332.0L89.0 332.0L89.0 149.0L169.0 149.0Z" fill-rule="nonzero"/><path fill="#34a853" clip-path="url(#id_0)" d="M169.0 332.0L89.0 332.0L89.0 149.0L169.0 149.0Z" fill-rule="nonzero"/><path stroke="#000000" stroke-width="2.0" stroke-linecap="butt" stroke-opacity="0.0" clip-path="url(#id_0)" d="M292.0 332.0L212.0 332.0L212.0 293.0L292.0 293.0Z" fill-rule="nonzero"/><path fill="#34a853" clip-path="url(#id_0)" d="M292.0 332.0L212.0 332.0L212.0 293.0L292.0 293.0Z" fill-rule="nonzero"/><path stroke="#000000" stroke-width="2.0" stroke-linecap="butt" stroke-opacity="0.0" clip-path="url(#id_0)" d="M415.0 332.0L335.0 332.0L335.0 319.0L415.0 319.0Z" fill-rule="nonzero"/><path fill="#34a853" clip-path="url(#id_0)" d="M415.0 332.0L335.0 332.0L335.0 319.0L415.0 319.0Z" fill-rule="nonzero"/><path stroke="#000000" stroke-width="2.0" stroke-linecap="butt" stroke-opacity="0.0" clip-path="url(#id_0)" d="M538.0 332.0L458.0 332.0L458.0 332.0L538.0 332.0Z" fill-rule="nonzero"/><path fill="#34a853" clip-path="url(#id_0)" d="M538.0 332.0L458.0 332.0L458.0 332.0L538.0 332.0Z" fill-rule="nonzero"/><path stroke="#000000" stroke-width="2.0" stroke-linecap="butt" stroke-opacity="0.0" clip-path="url(#id_0)" d="M169.0 149.0L89.0 149.0L89.0 122.0L169.0 122.0Z" fill-rule="nonzero"/><path fill="#fbbc04" clip-path="url(#id_0)" d="M169.0 149.0L89.0 149.0L89.0 122.0L169.0 122.0Z" fill-rule="nonzero"/><path stroke="#000000" stroke-width="2.0" stroke-linecap="butt" stroke-opacity="0.0" clip-path="url(#id_0)" d="M292.0 293.0L212.0 293.0L212.0 214.0L292.0 214.0Z" fill-rule="nonzero"/><path fill="#fbbc04" clip-path="url(#id_0)" d="M292.0 293.0L212.0 293.0L212.0 214.0L292.0 214.0Z" fill-rule="nonzero"/><path stroke="#000000" stroke-width="2.0" stroke-linecap="butt" stroke-opacity="0.0" clip-path="url(#id_0)" d="M415.0 319.0L335.0 319.0L335.0 214.0L415.0 214.0Z" fill-rule="nonzero"/><path fill="#fbbc04" clip-path="url(#id_0)" d="M415.0 319.0L335.0 319.0L335.0 214.0L415.0 214.0Z" fill-rule="nonzero"/><path stroke="#000000" stroke-width="2.0" stroke-linecap="butt" stroke-opacity="0.0" clip-path="url(#id_0)" d="M538.0 332.0L458.0 332.0L458.0 280.0L538.0 280.0Z" fill-rule="nonzero"/><path fill="#fbbc04" clip-path="url(#id_0)" d="M538.0 332.0L458.0 332.0L458.0 280.0L538.0 280.0Z" fill-rule="nonzero"/><path stroke="#000000" stroke-width="2.0" stroke-linecap="butt" stroke-opacity="0.0" clip-path="url(#id_0)" d="M169.0 122.0L89.0 122.0L89.0 122.0L169.0 122.0Z" fill-rule="nonzero"/><path fill="#4285f4" clip-path="url(#id_0)" d="M169.0 122.0L89.0 122.0L89.0 122.0L169.0 122.0Z" fill-rule="nonzero"/><path stroke="#000000" stroke-width="2.0" stroke-linecap="butt" stroke-opacity="0.0" clip-path="url(#id_0)" d="M292.0 214.0L212.0 214.0L212.0 109.0L292.0 109.0Z" fill-rule="nonzero"/><path fill="#4285f4" clip-path="url(#id_0)" d="M292.0 214.0L212.0 214.0L212.0 109.0L292.0 109.0Z" fill-rule="nonzero"/><path stroke="#000000" stroke-width="2.0" stroke-linecap="butt" stroke-opacity="0.0" clip-path="url(#id_0)" d="M415.0 214.0L335.0 214.0L335.0 109.0L415.0 109.0Z" fill-rule="nonzero"/><path fill="#4285f4" clip-path="url(#id_0)" d="M415.0 214.0L335.0 214.0L335.0 109.0L415.0 109.0Z" fill-rule="nonzero"/><path stroke="#000000" stroke-width="2.0" stroke-linecap="butt" stroke-opacity="0.0" clip-path="url(#id_0)" d="M538.0 280.0L458.0 280.0L458.0 136.0L538.0 136.0Z" fill-rule="nonzero"/><path fill="#4285f4" clip-path="url(#id_0)" d="M538.0 280.0L458.0 280.0L458.0 136.0L538.0 136.0Z" fill-rule="nonzero"/><path stroke="#000000" stroke-width="2.0" stroke-linecap="butt" stroke-opacity="0.0" clip-path="url(#id_0)" d="M169.0 122.0L89.0 122.0L89.0 111.0C89.0 109.89543 89.89543 109.0 91.0 109.0L167.0 109.0C168.10457 109.0 169.0 109.89543 169.0 111.0Z" fill-rule="nonzero"/><path fill="#ff0000" clip-path="url(#id_0)" d="M169.0 122.0L89.0 122.0L89.0 111.0C89.0 109.89543 89.89543 109.0 91.0 109.0L167.0 109.0C168.10457 109.0 169.0 109.89543 169.0 111.0Z" fill-rule="nonzero"/><path stroke="#000000" stroke-width="2.0" stroke-linecap="butt" stroke-opacity="0.0" clip-path="url(#id_0)" d="M292.0 109.0L212.0 109.0L212.0 109.0L292.0 109.0Z" fill-rule="nonzero"/><path fill="#ff0000" clip-path="url(#id_0)" d="M292.0 109.0L212.0 109.0L212.0 109.0L292.0 109.0Z" fill-rule="nonzero"/><path stroke="#000000" stroke-width="2.0" stroke-linecap="butt" stroke-opacity="0.0" clip-path="url(#id_0)" d="M415.0 109.0L335.0 109.0L335.0 109.0L415.0 109.0Z" fill-rule="nonzero"/><path fill="#ff0000" clip-path="url(#id_0)" d="M415.0 109.0L335.0 109.0L335.0 109.0L415.0 109.0Z" fill-rule="nonzero"/><path stroke="#000000" stroke-width="2.0" stroke-linecap="butt" stroke-opacity="0.0" clip-path="url(#id_0)" d="M538.0 136.0L458.0 136.0L458.0 111.0C458.0 109.89543 458.89542 109.0 460.0 109.0L536.0 109.0C537.10455 109.0 538.0 109.89543 538.0 111.0Z" fill-rule="nonzero"/><path fill="#ff0000" clip-path="url(#id_0)" d="M538.0 136.0L458.0 136.0L458.0 111.0C458.0 109.89543 458.89542 109.0 460.0 109.0L536.0 109.0C537.10455 109.0 538.0 109.89543 538.0 111.0Z" fill-rule="nonzero"/><path fill="#000000" d="M33.05 332.21564Q33.05 330.6844 33.3625 329.7625Q33.675 328.825 34.284374 328.325Q34.909374 327.825 35.846874 327.825Q36.534374 327.825 37.05 328.10626Q37.58125 328.3875 37.925 328.91876Q38.26875 329.4344 38.45625 330.1844Q38.64375 330.9344 38.64375 332.21564Q38.64375 333.73126 38.33125 334.65314Q38.034374 335.575 37.409374 336.09064Q36.8 336.59064 35.846874 336.59064Q34.6125 336.59064 33.89375 335.7Q33.05 334.6375 33.05 332.21564ZM34.128124 332.21564Q34.128124 334.325 34.628124 335.02814Q35.128124 335.73126 35.846874 335.73126Q36.58125 335.73126 37.065624 335.02814Q37.565624 334.325 37.565624 332.21564Q37.565624 330.09064 37.065624 329.40314Q36.58125 328.7 35.83125 328.7Q35.1125 328.7 34.675 329.3094Q34.128124 330.09064 34.128124 332.21564Z" fill-rule="nonzero"/><path fill="#000000" d="M33.05 268.56668L34.159374 268.47293Q34.284374 269.28543 34.721874 269.69168Q35.175 270.09793 35.815624 270.09793Q36.565624 270.09793 37.096874 269.5198Q37.628124 268.94168 37.628124 268.00418Q37.628124 267.09793 37.1125 266.5823Q36.6125 266.05106 35.784374 266.05106Q35.284374 266.05106 34.8625 266.28543Q34.45625 266.5198 34.221874 266.87918L33.2375 266.75418L34.065624 262.34793L38.346874 262.34793L38.346874 263.34793L34.909374 263.34793L34.45625 265.66043Q35.221874 265.11356 36.065624 265.11356Q37.190624 265.11356 37.95625 265.8948Q38.7375 266.67606 38.7375 267.91043Q38.7375 269.06668 38.065624 269.92606Q37.2375 270.9573 35.815624 270.9573Q34.64375 270.9573 33.89375 270.30106Q33.159374 269.6448 33.05 268.56668Z" fill-rule="nonzero"/><path fill="#000000" d="M30.01875 205.18333L28.971874 205.18333L28.971874 198.46458Q28.58125 198.82396 27.95625 199.19896Q27.346874 199.55833 26.8625 199.73021L26.8625 198.71458Q27.7375 198.29271 28.39375 197.71458Q29.065624 197.12083 29.346874 196.55833L30.01875 196.55833L30.01875 205.18333ZM33.05 200.94896Q33.05 199.41771 33.3625 198.49583Q33.675 197.55833 34.284374 197.05833Q34.909374 196.55833 35.846874 196.55833Q36.534374 196.55833 37.05 196.83958Q37.58125 197.12083 37.925 197.65208Q38.26875 198.16771 38.45625 198.91771Q38.64375 199.66771 38.64375 200.94896Q38.64375 202.46458 38.33125 203.38646Q38.034374 204.30833 37.409374 204.82396Q36.8 205.32396 35.846874 205.32396Q34.6125 205.32396 33.89375 204.43333Q33.05 203.37083 33.05 200.94896ZM34.128124 200.94896Q34.128124 203.05833 34.628124 203.76146Q35.128124 204.46458 35.846874 204.46458Q36.58125 204.46458 37.065624 203.76146Q37.565624 203.05833 37.565624 200.94896Q37.565624 198.82396 37.065624 198.13646Q36.58125 197.43333 35.83125 197.43333Q35.1125 197.43333 34.675 198.04271Q34.128124 198.82396 34.128124 200.94896Z" fill-rule="nonzero"/><path fill="#000000" d="M30.01875 139.55L28.971874 139.55L28.971874 132.83125Q28.58125 133.19063 27.95625 133.56563Q27.346874 133.925 26.8625 134.09688L26.8625 133.08125Q27.7375 132.65938 28.39375 132.08125Q29.065624 131.4875 29.346874 130.925L30.01875 130.925L30.01875 139.55ZM33.05 137.3L34.159374 137.20625Q34.284374 138.01875 34.721874 138.425Q35.175 138.83125 35.815624 138.83125Q36.565624 138.83125 37.096874 138.25313Q37.628124 137.675 37.628124 136.7375Q37.628124 135.83125 37.1125 135.31563Q36.6125 134.78438 35.784374 134.78438Q35.284374 134.78438 34.8625 135.01875Q34.45625 135.25313 34.221874 135.6125L33.2375 135.4875L34.065624 131.08125L38.346874 131.08125L38.346874 132.08125L34.909374 132.08125L34.45625 134.39375Q35.221874 133.84688 36.065624 133.84688Q37.190624 133.84688 37.95625 134.62813Q38.7375 135.40938 38.7375 136.64375Q38.7375 137.8 38.065624 138.65938Q37.2375 139.69063 35.815624 139.69063Q34.64375 139.69063 33.89375 139.03438Q33.159374 138.37813 33.05 137.3Z" fill-rule="nonzero"/><path fill="#000000" d="M31.596874 72.90104L31.596874 73.916664L25.909374 73.916664Q25.909374 73.541664 26.034374 73.18229Q26.253124 72.604164 26.721874 72.041664Q27.20625 71.479164 28.1125 70.74479Q29.51875 69.58854 30.003124 68.916664Q30.503124 68.24479 30.503124 67.65104Q30.503124 67.02604 30.05 66.604164Q29.596874 66.166664 28.878124 66.166664Q28.1125 66.166664 27.659374 66.61979Q27.20625 67.072914 27.190624 67.885414L26.1125 67.77604Q26.221874 66.55729 26.940624 65.93229Q27.675 65.291664 28.909374 65.291664Q30.14375 65.291664 30.8625 65.979164Q31.58125 66.666664 31.58125 67.68229Q31.58125 68.197914 31.3625 68.697914Q31.159374 69.18229 30.659374 69.74479Q30.175 70.291664 29.05 71.24479Q28.096874 72.041664 27.815624 72.33854Q27.55 72.61979 27.378124 72.90104L31.596874 72.90104ZM33.05 69.68229Q33.05 68.15104 33.3625 67.229164Q33.675 66.291664 34.284374 65.791664Q34.909374 65.291664 35.846874 65.291664Q36.534374 65.291664 37.05 65.572914Q37.58125 65.854164 37.925 66.385414Q38.26875 66.90104 38.45625 67.65104Q38.64375 68.40104 38.64375 69.68229Q38.64375 71.197914 38.33125 72.11979Q38.034374 73.041664 37.409374 73.55729Q36.8 74.05729 35.846874 74.05729Q34.6125 74.05729 33.89375 73.166664Q33.05 72.104164 33.05 69.68229ZM34.128124 69.68229Q34.128124 71.791664 34.628124 72.49479Q35.128124 73.197914 35.846874 73.197914Q36.58125 73.197914 37.065624 72.49479Q37.565624 71.791664 37.565624 69.68229Q37.565624 67.55729 37.065624 66.86979Q36.58125 66.166664 35.83125 66.166664Q35.1125 66.166664 34.675 66.77604Q34.128124 67.55729 34.128124 69.68229Z" fill-rule="nonzero"/><path fill="#000000" d="M104.81627 349.45L104.81627 341.8719L101.988144 341.8719L101.988144 340.85626L108.800644 340.85626L108.800644 341.8719L105.956894 341.8719L105.956894 349.45L104.81627 349.45ZM113.75377 347.45L114.84752 347.575Q114.59752 348.52814 113.894394 349.0594Q113.19127 349.59064 112.113144 349.59064Q110.75377 349.59064 109.94127 348.7469Q109.144394 347.90314 109.144394 346.3875Q109.144394 344.825 109.956894 343.96564Q110.769394 343.09064 112.050644 343.09064Q113.300644 343.09064 114.081894 343.9344Q114.87877 344.77814 114.87877 346.325Q114.87877 346.41876 114.87877 346.60626L110.238144 346.60626Q110.300644 347.6375 110.81627 348.1844Q111.331894 348.71564 112.113144 348.71564Q112.69127 348.71564 113.09752 348.41876Q113.519394 348.10626 113.75377 347.45ZM110.300644 345.7469L113.769394 345.7469Q113.706894 344.95 113.37877 344.5594Q112.863144 343.95 112.06627 343.95Q111.331894 343.95 110.831894 344.4344Q110.34752 344.91876 110.300644 345.7469ZM116.488144 349.45L116.488144 343.23126L117.44127 343.23126L117.44127 344.16876Q117.800644 343.5125 118.09752 343.3094Q118.41002 343.09064 118.78502 343.09064Q119.31627 343.09064 119.863144 343.41876L119.50377 344.40314Q119.113144 344.16876 118.738144 344.16876Q118.37877 344.16876 118.09752 344.3875Q117.831894 344.59064 117.72252 344.96564Q117.53502 345.52814 117.53502 346.1844L117.53502 349.45L116.488144 349.45ZM120.488144 349.45L120.488144 343.23126L121.44127 343.23126L121.44127 344.16876Q121.800644 343.5125 122.09752 343.3094Q122.41002 343.09064 122.78502 343.09064Q123.31627 343.09064 123.863144 343.41876L123.50377 344.40314Q123.113144 344.16876 122.738144 344.16876Q122.37877 344.16876 122.09752 344.3875Q121.831894 344.59064 121.72252 344.96564Q121.53502 345.52814 121.53502 346.1844L121.53502 349.45L120.488144 349.45ZM128.56627 348.6844Q127.97252 349.1844 127.425644 349.3875Q126.894394 349.59064 126.269394 349.59064Q125.238144 349.59064 124.69127 349.09064Q124.144394 348.59064 124.144394 347.8094Q124.144394 347.35626 124.34752 346.98126Q124.550644 346.59064 124.894394 346.3719Q125.238144 346.1375 125.66002 346.02814Q125.956894 345.9344 126.59752 345.85626Q127.863144 345.71564 128.47252 345.4969Q128.47252 345.27814 128.47252 345.23126Q128.47252 344.575 128.17564 344.3094Q127.769394 343.96564 126.97252 343.96564Q126.238144 343.96564 125.87877 344.23126Q125.519394 344.48126 125.34752 345.1375L124.31627 344.9969Q124.456894 344.34064 124.78502 343.9344Q125.113144 343.52814 125.72252 343.3094Q126.331894 343.09064 127.12877 343.09064Q127.925644 343.09064 128.42564 343.27814Q128.92564 343.46564 129.16002 343.7469Q129.3944 344.02814 129.48814 344.46564Q129.53502 344.73126 129.53502 345.4344L129.53502 346.84064Q129.53502 348.3094 129.59752 348.7Q129.67564 349.09064 129.87877 349.45L128.7694 349.45Q128.61314 349.1219 128.56627 348.6844ZM128.47252 346.325Q127.894394 346.5594 126.75377 346.73126Q126.09752 346.825 125.831894 346.95Q125.56627 347.0594 125.41002 347.27814Q125.269394 347.4969 125.269394 347.77814Q125.269394 348.2 125.581894 348.48126Q125.91002 348.7625 126.519394 348.7625Q127.12877 348.7625 127.59752 348.4969Q128.0819 348.23126 128.30064 347.7625Q128.47252 347.40314 128.47252 346.71564L128.47252 346.325ZM131.75377 349.45L131.75377 344.04376L130.81627 344.04376L130.81627 343.23126L131.75377 343.23126L131.75377 342.5594Q131.75377 341.9344 131.86314 341.6375Q132.0194 341.21564 132.3944 340.96564Q132.78502 340.71564 133.47252 340.71564Q133.92564 340.71564 134.4569 340.825L134.30064 341.73126Q133.97252 341.6844 133.67564 341.6844Q133.19127 341.6844 132.98814 341.8875Q132.80064 342.09064 132.80064 342.65314L132.80064 343.23126L134.0194 343.23126L134.0194 344.04376L132.80064 344.04376L132.80064 349.45L131.75377 349.45ZM134.11314 346.34064Q134.11314 344.60626 135.06627 343.77814Q135.86314 343.09064 137.0194 343.09064Q138.30064 343.09064 139.11314 343.9344Q139.94127 344.7625 139.94127 346.2469Q139.94127 347.45 139.5819 348.1375Q139.22252 348.825 138.5194 349.21564Q137.8319 349.59064 137.0194 349.59064Q135.72252 349.59064 134.91002 348.7625Q134.11314 347.91876 134.11314 346.34064ZM135.19127 346.34064Q135.19127 347.52814 135.7069 348.1219Q136.23814 348.71564 137.0194 348.71564Q137.81627 348.71564 138.3319 348.1219Q138.84752 347.52814 138.84752 346.3094Q138.84752 345.15314 138.31627 344.5594Q137.80064 343.96564 137.0194 343.96564Q136.23814 343.96564 135.7069 344.5594Q135.19127 345.1375 135.19127 346.34064ZM141.48814 349.45L141.48814 343.23126L142.44127 343.23126L142.44127 344.16876Q142.80064 343.5125 143.09752 343.3094Q143.41002 343.09064 143.78502 343.09064Q144.31627 343.09064 144.86314 343.41876L144.50377 344.40314Q144.11314 344.16876 143.73814 344.16876Q143.37877 344.16876 143.09752 344.3875Q142.8319 344.59064 142.72252 344.96564Q142.53502 345.52814 142.53502 346.1844L142.53502 349.45L141.48814 349.45ZM145.50377 349.45L145.50377 343.23126L146.44127 343.23126L146.44127 344.10626Q146.73814 343.6375 147.22252 343.3719Q147.7069 343.09064 148.3319 343.09064Q149.0194 343.09064 149.4569 343.3719Q149.91002 343.65314 150.0819 344.16876Q150.8319 343.09064 152.00377 343.09064Q152.94127 343.09064 153.42564 343.60626Q153.92564 344.10626 153.92564 345.1844L153.92564 349.45L152.87877 349.45L152.87877 345.52814Q152.87877 344.90314 152.7694 344.6219Q152.67564 344.34064 152.41002 344.16876Q152.1444 343.9969 151.7694 343.9969Q151.11314 343.9969 150.67564 344.4344Q150.25377 344.8719 150.25377 345.84064L150.25377 349.45L149.19127 349.45L149.19127 345.40314Q149.19127 344.7 148.92564 344.35626Q148.67564 343.9969 148.09752 343.9969Q147.6444 343.9969 147.2694 344.23126Q146.8944 344.46564 146.72252 344.91876Q146.55064 345.3719 146.55064 346.21564L146.55064 349.45L145.50377 349.45Z" fill-rule="nonzero"/><path fill="#000000" d="M236.35542 349.45L236.35542 340.85626L242.55855 340.85626L242.55855 341.8719L237.49605 341.8719L237.49605 344.4969L242.24605 344.4969L242.24605 345.5125L237.49605 345.5125L237.49605 348.4344L242.76167 348.4344L242.76167 349.45L236.35542 349.45ZM244.19917 349.45L244.19917 340.85626L245.26167 340.85626L245.26167 345.7625L247.74605 343.23126L249.12105 343.23126L246.73042 345.52814L249.35542 349.45L248.05855 349.45L245.99605 346.2625L245.26167 346.98126L245.26167 349.45L244.19917 349.45ZM249.7773 347.59064L250.80855 347.4344Q250.9023 348.0594 251.29292 348.3875Q251.69917 348.71564 252.43355 348.71564Q253.1523 348.71564 253.49605 348.4344Q253.85542 348.1375 253.85542 347.73126Q253.85542 347.3719 253.54292 347.16876Q253.32417 347.02814 252.4648 346.8094Q251.30855 346.5125 250.85542 346.3094Q250.41792 346.09064 250.18355 345.71564Q249.94917 345.34064 249.94917 344.8719Q249.94917 344.46564 250.13667 344.10626Q250.32417 343.7469 250.6523 343.5125Q250.9023 343.34064 251.32417 343.21564Q251.74605 343.09064 252.24605 343.09064Q252.9648 343.09064 253.51167 343.3094Q254.07417 343.5125 254.3398 343.8719Q254.60542 344.23126 254.69917 344.825L253.66792 344.96564Q253.60542 344.4969 253.26167 344.23126Q252.93355 343.95 252.30855 343.95Q251.5898 343.95 251.2773 344.2Q250.9648 344.4344 250.9648 344.7625Q250.9648 344.96564 251.0898 345.1219Q251.23042 345.29376 251.49605 345.40314Q251.6523 345.46564 252.43355 345.66876Q253.55855 345.98126 253.99605 346.16876Q254.43355 346.35626 254.68355 346.71564Q254.93355 347.075 254.93355 347.6219Q254.93355 348.15314 254.62105 348.6219Q254.32417 349.075 253.74605 349.34064Q253.16792 349.59064 252.43355 349.59064Q251.2148 349.59064 250.57417 349.09064Q249.94917 348.575 249.7773 347.59064ZM261.26166 347.16876L262.2929 347.3094Q262.12103 348.3719 261.4179 348.98126Q260.71478 349.59064 259.69916 349.59064Q258.4179 349.59064 257.63666 348.7625Q256.87103 347.91876 256.87103 346.35626Q256.87103 345.35626 257.19916 344.60626Q257.5429 343.84064 258.21478 343.46564Q258.90228 343.09064 259.71478 343.09064Q260.71478 343.09064 261.3554 343.60626Q262.01166 344.10626 262.19916 345.0594L261.1679 345.21564Q261.02728 344.59064 260.65228 344.27814Q260.27728 343.95 259.74603 343.95Q258.94916 343.95 258.44916 344.52814Q257.94916 345.09064 257.94916 346.325Q257.94916 347.59064 258.43353 348.15314Q258.9179 348.71564 259.68353 348.71564Q260.30853 348.71564 260.71478 348.34064Q261.13666 347.96564 261.26166 347.16876ZM265.49603 348.5125L265.65228 349.4344Q265.19916 349.52814 264.8554 349.52814Q264.27728 349.52814 263.96478 349.35626Q263.65228 349.16876 263.51166 348.8719Q263.38666 348.575 263.38666 347.6219L263.38666 344.04376L262.62103 344.04376L262.62103 343.23126L263.38666 343.23126L263.38666 341.6844L264.43353 341.0594L264.43353 343.23126L265.49603 343.23126L265.49603 344.04376L264.43353 344.04376L264.43353 347.6844Q264.43353 348.1375 264.4804 348.2625Q264.5429 348.3875 264.6679 348.46564Q264.7929 348.54376 265.02728 348.54376Q265.21478 348.54376 265.49603 348.5125ZM266.1679 349.45L266.1679 340.85626L267.2304 340.85626L267.2304 349.45L266.1679 349.45Z" fill-rule="nonzero"/><path fill="#000000" d="M339.6602 346.4344L340.7852 346.73126Q340.4258 348.1219 339.50394 348.85626Q338.58206 349.59064 337.2383 349.59064Q335.8477 349.59064 334.9727 349.02814Q334.0977 348.46564 333.64456 347.40314Q333.19144 346.325 333.19144 345.09064Q333.19144 343.7469 333.70706 342.7469Q334.2227 341.7469 335.1602 341.23126Q336.1133 340.71564 337.25394 340.71564Q338.5352 340.71564 339.4102 341.3719Q340.3008 342.02814 340.64456 343.21564L339.51956 343.48126Q339.2227 342.54376 338.64456 342.1219Q338.08206 341.6844 337.2227 341.6844Q336.2383 341.6844 335.56644 342.16876Q334.9102 342.6375 334.62894 343.4344Q334.3633 344.23126 334.3633 345.09064Q334.3633 346.1844 334.6758 346.9969Q335.00394 347.8094 335.6758 348.21564Q336.3477 348.6219 337.14456 348.6219Q338.0977 348.6219 338.75394 348.075Q339.4258 347.52814 339.6602 346.4344ZM342.3633 349.45L342.3633 340.85626L343.4258 340.85626L343.4258 349.45L342.3633 349.45ZM345.00394 346.34064Q345.00394 344.60626 345.95706 343.77814Q346.75394 343.09064 347.9102 343.09064Q349.19144 343.09064 350.00394 343.9344Q350.83206 344.7625 350.83206 346.2469Q350.83206 347.45 350.4727 348.1375Q350.1133 348.825 349.4102 349.21564Q348.7227 349.59064 347.9102 349.59064Q346.6133 349.59064 345.8008 348.7625Q345.00394 347.91876 345.00394 346.34064ZM346.08206 346.34064Q346.08206 347.52814 346.5977 348.1219Q347.12894 348.71564 347.9102 348.71564Q348.70706 348.71564 349.2227 348.1219Q349.7383 347.52814 349.7383 346.3094Q349.7383 345.15314 349.20706 344.5594Q348.69144 343.96564 347.9102 343.96564Q347.12894 343.96564 346.5977 344.5594Q346.08206 345.1375 346.08206 346.34064ZM356.4727 349.45L356.4727 348.52814Q355.7383 349.59064 354.4883 349.59064Q353.94144 349.59064 353.45706 349.3875Q352.9883 349.16876 352.75394 348.85626Q352.51956 348.52814 352.4258 348.0594Q352.3633 347.7625 352.3633 347.075L352.3633 343.23126L353.4258 343.23126L353.4258 346.6844Q353.4258 347.4969 353.4883 347.79376Q353.58206 348.2 353.89456 348.45Q354.2227 348.6844 354.70706 348.6844Q355.1758 348.6844 355.58206 348.45Q356.00394 348.2 356.1758 347.77814Q356.3633 347.35626 356.3633 346.5594L356.3633 343.23126L357.4102 343.23126L357.4102 349.45L356.4727 349.45ZM363.4258 349.45L363.4258 348.66876Q362.83206 349.59064 361.69144 349.59064Q360.94144 349.59064 360.31644 349.1844Q359.69144 348.7625 359.3477 348.02814Q359.00394 347.29376 359.00394 346.34064Q359.00394 345.41876 359.31644 344.65314Q359.62894 343.8875 360.25394 343.4969Q360.87894 343.09064 361.64456 343.09064Q362.20706 343.09064 362.64456 343.325Q363.08206 343.5594 363.3633 343.9344L363.3633 340.85626L364.4102 340.85626L364.4102 349.45L363.4258 349.45ZM360.0977 346.34064Q360.0977 347.54376 360.5977 348.1375Q361.0977 348.71564 361.7852 348.71564Q362.4727 348.71564 362.95706 348.15314Q363.44144 347.59064 363.44144 346.4344Q363.44144 345.15314 362.94144 344.5594Q362.45706 343.96564 361.7383 343.96564Q361.0352 343.96564 360.56644 344.54376Q360.0977 345.10626 360.0977 346.34064ZM366.64456 349.45L366.64456 344.04376L365.70706 344.04376L365.70706 343.23126L366.64456 343.23126L366.64456 342.5594Q366.64456 341.9344 366.75394 341.6375Q366.9102 341.21564 367.2852 340.96564Q367.6758 340.71564 368.3633 340.71564Q368.81644 340.71564 369.3477 340.825L369.19144 341.73126Q368.8633 341.6844 368.56644 341.6844Q368.08206 341.6844 367.87894 341.8875Q367.69144 342.09064 367.69144 342.65314L367.69144 343.23126L368.9102 343.23126L368.9102 344.04376L367.69144 344.04376L367.69144 349.45L366.64456 349.45ZM369.00394 346.34064Q369.00394 344.60626 369.95706 343.77814Q370.75394 343.09064 371.9102 343.09064Q373.19144 343.09064 374.00394 343.9344Q374.83206 344.7625 374.83206 346.2469Q374.83206 347.45 374.4727 348.1375Q374.1133 348.825 373.4102 349.21564Q372.7227 349.59064 371.9102 349.59064Q370.6133 349.59064 369.8008 348.7625Q369.00394 347.91876 369.00394 346.34064ZM370.08206 346.34064Q370.08206 347.52814 370.5977 348.1219Q371.12894 348.71564 371.9102 348.71564Q372.70706 348.71564 373.2227 348.1219Q373.7383 347.52814 373.7383 346.3094Q373.7383 345.15314 373.20706 344.5594Q372.69144 343.96564 371.9102 343.96564Q371.12894 343.96564 370.5977 344.5594Q370.08206 345.1375 370.08206 346.34064ZM376.37894 349.45L376.37894 343.23126L377.33206 343.23126L377.33206 344.16876Q377.69144 343.5125 377.9883 343.3094Q378.3008 343.09064 378.6758 343.09064Q379.20706 343.09064 379.75394 343.41876L379.39456 344.40314Q379.00394 344.16876 378.62894 344.16876Q378.26956 344.16876 377.9883 344.3875Q377.7227 344.59064 377.6133 344.96564Q377.4258 345.52814 377.4258 346.1844L377.4258 349.45L376.37894 349.45ZM380.39456 349.45L380.39456 343.23126L381.33206 343.23126L381.33206 344.10626Q381.62894 343.6375 382.1133 343.3719Q382.5977 343.09064 383.2227 343.09064Q383.9102 343.09064 384.3477 343.3719Q384.8008 343.65314 384.9727 344.16876Q385.7227 343.09064 386.89456 343.09064Q387.83206 343.09064 388.31644 343.60626Q388.81644 344.10626 388.81644 345.1844L388.81644 349.45L387.76956 349.45L387.76956 345.52814Q387.76956 344.90314 387.6602 344.6219Q387.56644 344.34064 387.3008 344.16876Q387.0352 343.9969 386.6602 343.9969Q386.00394 343.9969 385.56644 344.4344Q385.14456 344.8719 385.14456 345.84064L385.14456 349.45L384.08206 349.45L384.08206 345.40314Q384.08206 344.7 383.81644 344.35626Q383.56644 343.9969 382.9883 343.9969Q382.5352 343.9969 382.1602 344.23126Q381.7852 344.46564 381.6133 344.91876Q381.44144 345.3719 381.44144 346.21564L381.44144 349.45L380.39456 349.45ZM395.45706 348.6844Q394.8633 349.1844 394.31644 349.3875Q393.7852 349.59064 393.1602 349.59064Q392.12894 349.59064 391.58206 349.09064Q391.0352 348.59064 391.0352 347.8094Q391.0352 347.35626 391.2383 346.98126Q391.44144 346.59064 391.7852 346.3719Q392.12894 346.1375 392.5508 346.02814Q392.8477 345.9344 393.4883 345.85626Q394.75394 345.71564 395.3633 345.4969Q395.3633 345.27814 395.3633 345.23126Q395.3633 344.575 395.06644 344.3094Q394.6602 343.96564 393.8633 343.96564Q393.12894 343.96564 392.76956 344.23126Q392.4102 344.48126 392.2383 345.1375L391.20706 344.9969Q391.3477 344.34064 391.6758 343.9344Q392.00394 343.52814 392.6133 343.3094Q393.2227 343.09064 394.01956 343.09064Q394.81644 343.09064 395.31644 343.27814Q395.81644 343.46564 396.0508 343.7469Q396.2852 344.02814 396.37894 344.46564Q396.4258 344.73126 396.4258 345.4344L396.4258 346.84064Q396.4258 348.3094 396.4883 348.7Q396.56644 349.09064 396.76956 349.45L395.6602 349.45Q395.50394 349.1219 395.45706 348.6844ZM395.3633 346.325Q394.7852 346.5594 393.64456 346.73126Q392.9883 346.825 392.7227 346.95Q392.45706 347.0594 392.3008 347.27814Q392.1602 347.4969 392.1602 347.77814Q392.1602 348.2 392.4727 348.48126Q392.8008 348.7625 393.4102 348.7625Q394.01956 348.7625 394.4883 348.4969Q394.9727 348.23126 395.19144 347.7625Q395.3633 347.40314 395.3633 346.71564L395.3633 346.325ZM400.69144 348.5125L400.8477 349.4344Q400.39456 349.52814 400.0508 349.52814Q399.4727 349.52814 399.1602 349.35626Q398.8477 349.16876 398.70706 348.8719Q398.58206 348.575 398.58206 347.6219L398.58206 344.04376L397.81644 344.04376L397.81644 343.23126L398.58206 343.23126L398.58206 341.6844L399.62894 341.0594L399.62894 343.23126L400.69144 343.23126L400.69144 344.04376L399.62894 344.04376L399.62894 347.6844Q399.62894 348.1375 399.6758 348.2625Q399.7383 348.3875 399.8633 348.46564Q399.9883 348.54376 400.2227 348.54376Q400.4102 348.54376 400.69144 348.5125ZM401.39456 342.075L401.39456 340.85626L402.45706 340.85626L402.45706 342.075L401.39456 342.075ZM401.39456 349.45L401.39456 343.23126L402.45706 343.23126L402.45706 349.45L401.39456 349.45ZM404.00394 346.34064Q404.00394 344.60626 404.95706 343.77814Q405.75394 343.09064 406.9102 343.09064Q408.19144 343.09064 409.00394 343.9344Q409.83206 344.7625 409.83206 346.2469Q409.83206 347.45 409.4727 348.1375Q409.1133 348.825 408.4102 349.21564Q407.7227 349.59064 406.9102 349.59064Q405.6133 349.59064 404.8008 348.7625Q404.00394 347.91876 404.00394 346.34064ZM405.08206 346.34064Q405.08206 347.52814 405.5977 348.1219Q406.12894 348.71564 406.9102 348.71564Q407.70706 348.71564 408.2227 348.1219Q408.7383 347.52814 408.7383 346.3094Q408.7383 345.15314 408.20706 344.5594Q407.69144 343.96564 406.9102 343.96564Q406.12894 343.96564 405.5977 344.5594Q405.08206 345.1375 405.08206 346.34064ZM411.39456 349.45L411.39456 343.23126L412.33206 343.23126L412.33206 344.10626Q413.01956 343.09064 414.31644 343.09064Q414.87894 343.09064 415.3477 343.29376Q415.83206 343.4969 416.06644 343.825Q416.3008 344.15314 416.39456 344.59064Q416.44144 344.8875 416.44144 345.6219L416.44144 349.45L415.39456 349.45L415.39456 345.66876Q415.39456 345.0125 415.26956 344.7Q415.14456 344.3875 414.83206 344.2Q414.51956 343.9969 414.0977 343.9969Q413.4258 343.9969 412.9258 344.4344Q412.44144 344.85626 412.44144 346.04376L412.44144 349.45L411.39456 349.45Z" fill-rule="nonzero"/><path fill="#000000" d="M470.77747 349.45L474.07434 340.85626L475.2931 340.85626L478.80872 349.45L477.52747 349.45L476.51184 346.84064L472.93372 346.84064L471.9806 349.45L470.77747 349.45ZM473.26184 345.91876L476.1681 345.91876L475.27747 343.54376Q474.8556 342.46564 474.6681 341.7625Q474.49622 342.59064 474.19934 343.40314L473.26184 345.91876ZM480.21497 349.45L477.93372 340.85626L479.1056 340.85626L480.4181 346.4969Q480.62122 347.3719 480.77747 348.2469Q481.1056 346.8719 481.1681 346.65314L482.7931 340.85626L484.1681 340.85626L485.40247 345.2Q485.8556 346.825 486.07434 348.2469Q486.2306 347.4344 486.49622 346.3719L487.83997 340.85626L488.9806 340.85626L486.63684 349.45L485.52747 349.45L483.7306 342.90314Q483.49622 342.09064 483.44934 341.90314Q483.32434 342.48126 483.19934 342.90314L481.38684 349.45L480.21497 349.45ZM489.33997 346.6844L490.40247 346.59064Q490.4806 347.2469 490.76184 347.65314Q491.0431 348.0594 491.62122 348.325Q492.21497 348.575 492.94934 348.575Q493.58997 348.575 494.08997 348.3875Q494.58997 348.1844 494.82434 347.85626Q495.07434 347.5125 495.07434 347.1219Q495.07434 346.71564 494.83997 346.41876Q494.6056 346.10626 494.07434 345.90314Q493.71497 345.7625 492.52747 345.48126Q491.3556 345.2 490.88684 344.95Q490.26184 344.6219 489.96497 344.15314Q489.6681 343.66876 489.6681 343.075Q489.6681 342.4344 490.02747 341.8719Q490.40247 341.29376 491.1056 341.0125Q491.82434 340.71564 492.68372 340.71564Q493.63684 340.71564 494.37122 341.02814Q495.1056 341.325 495.49622 341.9344Q495.88684 342.52814 495.9181 343.27814L494.82434 343.35626Q494.7306 342.54376 494.21497 342.1375Q493.71497 341.71564 492.7306 341.71564Q491.69934 341.71564 491.2306 342.09064Q490.76184 342.46564 490.76184 342.9969Q490.76184 343.46564 491.08997 343.7625Q491.4181 344.0594 492.7931 344.3719Q494.18372 344.6844 494.69934 344.91876Q495.44934 345.27814 495.80872 345.8094Q496.1681 346.325 496.1681 347.02814Q496.1681 347.71564 495.77747 348.325Q495.38684 348.91876 494.65247 349.2625Q493.9181 349.59064 492.99622 349.59064Q491.82434 349.59064 491.02747 349.2625Q490.24622 348.91876 489.7931 348.23126Q489.3556 347.54376 489.33997 346.6844ZM506.8556 346.4344L507.9806 346.73126Q507.62122 348.1219 506.69934 348.85626Q505.77747 349.59064 504.43372 349.59064Q503.0431 349.59064 502.1681 349.02814Q501.2931 348.46564 500.83997 347.40314Q500.38684 346.325 500.38684 345.09064Q500.38684 343.7469 500.90247 342.7469Q501.4181 341.7469 502.3556 341.23126Q503.30872 340.71564 504.44934 340.71564Q505.7306 340.71564 506.6056 341.3719Q507.49622 342.02814 507.83997 343.21564L506.71497 343.48126Q506.4181 342.54376 505.83997 342.1219Q505.27747 341.6844 504.4181 341.6844Q503.43372 341.6844 502.76184 342.16876Q502.1056 342.6375 501.82434 343.4344Q501.55872 344.23126 501.55872 345.09064Q501.55872 346.1844 501.87122 346.9969Q502.19934 347.8094 502.87122 348.21564Q503.5431 348.6219 504.33997 348.6219Q505.2931 348.6219 505.94934 348.075Q506.62122 347.52814 506.8556 346.4344ZM509.71497 349.45L509.71497 340.85626L512.6837 340.85626Q513.6837 340.85626 514.21497 340.98126Q514.94934 341.15314 515.46497 341.59064Q516.15247 342.16876 516.4806 343.075Q516.82434 343.96564 516.82434 345.10626Q516.82434 346.09064 516.58997 346.84064Q516.3712 347.59064 516.01184 348.09064Q515.65247 348.59064 515.21497 348.8719Q514.7931 349.15314 514.19934 349.3094Q513.6056 349.45 512.82434 349.45L509.71497 349.45ZM510.8556 348.4344L512.6837 348.4344Q513.5431 348.4344 514.02747 348.27814Q514.51184 348.1219 514.7931 347.825Q515.19934 347.4344 515.4181 346.7469Q515.65247 346.0594 515.65247 345.09064Q515.65247 343.7469 515.19934 343.02814Q514.76184 342.29376 514.13684 342.04376Q513.6681 341.8719 512.6681 341.8719L510.8556 341.8719L510.8556 348.4344ZM518.6681 349.45L518.6681 340.85626L519.8087 340.85626L519.8087 345.1219L524.07434 340.85626L525.6212 340.85626L522.01184 344.34064L525.77747 349.45L524.27747 349.45L521.21497 345.10626L519.8087 346.46564L519.8087 349.45L518.6681 349.45Z" fill-rule="nonzero"/><path fill="#ff0000" d="M91.0 20.55C91.0 19.997715 91.447716 19.55 92.0 19.55L102.0 19.55C102.552284 19.55 103.0 19.997715 103.0 20.55L103.0 30.55C103.0 31.102285 102.552284 31.55 102.0 31.55L92.0 31.55C91.447716 31.55 91.0 31.102285 91.0 30.55Z" fill-rule="nonzero"/><path fill="#1a1a1a" d="M111.921875 29.55L111.921875 20.95625L113.078125 20.95625L117.59375 27.70625L117.59375 20.95625L118.6875 20.95625L118.6875 29.55L117.515625 29.55L113.0 22.8L113.0 29.55L111.921875 29.55ZM124.859375 28.784374Q124.265625 29.284374 123.71875 29.4875Q123.1875 29.690624 122.5625 29.690624Q121.53125 29.690624 120.984375 29.190624Q120.4375 28.690624 120.4375 27.909374Q120.4375 27.45625 120.640625 27.08125Q120.84375 26.690624 121.1875 26.471874Q121.53125 26.2375 121.953125 26.128124Q122.25 26.034374 122.890625 25.95625Q124.15625 25.815624 124.765625 25.596874Q124.765625 25.378124 124.765625 25.33125Q124.765625 24.675 124.46875 24.409374Q124.0625 24.065624 123.265625 24.065624Q122.53125 24.065624 122.171875 24.33125Q121.8125 24.58125 121.640625 25.2375L120.609375 25.096874Q120.75 24.440624 121.078125 24.034374Q121.40625 23.628124 122.015625 23.409374Q122.625 23.190624 123.421875 23.190624Q124.21875 23.190624 124.71875 23.378124Q125.21875 23.565624 125.453125 23.846874Q125.6875 24.128124 125.78125 24.565624Q125.828125 24.83125 125.828125 25.534374L125.828125 26.940624Q125.828125 28.409374 125.890625 28.8Q125.96875 29.190624 126.171875 29.55L125.0625 29.55Q124.90625 29.221874 124.859375 28.784374ZM124.765625 26.425Q124.1875 26.659374 123.046875 26.83125Q122.390625 26.925 122.125 27.05Q121.859375 27.159374 121.703125 27.378124Q121.5625 27.596874 121.5625 27.878124Q121.5625 28.3 121.875 28.58125Q122.203125 28.8625 122.8125 28.8625Q123.421875 28.8625 123.890625 28.596874Q124.375 28.33125 124.59375 27.8625Q124.765625 27.503124 124.765625 26.815624L124.765625 26.425ZM121.34375 22.409374Q121.328125 21.8 121.671875 21.440624Q122.0 21.065624 122.53125 21.065624Q122.890625 21.065624 123.515625 21.39375Q123.859375 21.565624 124.0625 21.565624Q124.25 21.565624 124.34375 21.471874Q124.453125 21.3625 124.5 21.05L125.265625 21.05Q125.234375 21.721874 124.921875 22.065624Q124.609375 22.39375 124.109375 22.39375Q123.734375 22.39375 123.140625 22.065624Q122.75 21.846874 122.5625 21.846874Q122.359375 21.846874 122.234375 21.9875Q122.109375 22.128124 122.125 22.409374L121.34375 22.409374ZM127.40625 26.440624Q127.40625 24.70625 128.35938 23.878124Q129.15625 23.190624 130.3125 23.190624Q131.59375 23.190624 132.40625 24.034374Q133.23438 24.8625 133.23438 26.346874Q133.23438 27.55 132.875 28.2375Q132.51562 28.925 131.8125 29.315624Q131.125 29.690624 130.3125 29.690624Q129.01562 29.690624 128.20312 28.8625Q127.40625 28.01875 127.40625 26.440624ZM128.48438 26.440624Q128.48438 27.628124 129.0 28.221874Q129.53125 28.815624 130.3125 28.815624Q131.10938 28.815624 131.625 28.221874Q132.14062 27.628124 132.14062 26.409374Q132.14062 25.253124 131.60938 24.659374Q131.09375 24.065624 130.3125 24.065624Q129.53125 24.065624 129.0 24.659374Q128.48438 25.2375 128.48438 26.440624ZM141.85938 27.26875L142.89062 27.409374Q142.71875 28.471874 142.01562 29.08125Q141.3125 29.690624 140.29688 29.690624Q139.01562 29.690624 138.23438 28.8625Q137.46875 28.01875 137.46875 26.45625Q137.46875 25.45625 137.79688 24.70625Q138.14062 23.940624 138.8125 23.565624Q139.5 23.190624 140.3125 23.190624Q141.3125 23.190624 141.95312 23.70625Q142.60938 24.20625 142.79688 25.159374L141.76562 25.315624Q141.625 24.690624 141.25 24.378124Q140.875 24.05 140.34375 24.05Q139.54688 24.05 139.04688 24.628124Q138.54688 25.190624 138.54688 26.425Q138.54688 27.690624 139.03125 28.253124Q139.51562 28.815624 140.28125 28.815624Q140.90625 28.815624 141.3125 28.440624Q141.73438 28.065624 141.85938 27.26875ZM143.40625 26.440624Q143.40625 24.70625 144.35938 23.878124Q145.15625 23.190624 146.3125 23.190624Q147.59375 23.190624 148.40625 24.034374Q149.23438 24.8625 149.23438 26.346874Q149.23438 27.55 148.875 28.2375Q148.51562 28.925 147.8125 29.315624Q147.125 29.690624 146.3125 29.690624Q145.01562 29.690624 144.20312 28.8625Q143.40625 28.01875 143.40625 26.440624ZM144.48438 26.440624Q144.48438 27.628124 145.0 28.221874Q145.53125 28.815624 146.3125 28.815624Q147.10938 28.815624 147.625 28.221874Q148.14062 27.628124 148.14062 26.409374Q148.14062 25.253124 147.60938 24.659374Q147.09375 24.065624 146.3125 24.065624Q145.53125 24.065624 145.0 24.659374Q144.48438 25.2375 144.48438 26.440624ZM150.79688 29.55L150.79688 23.33125L151.73438 23.33125L151.73438 24.20625Q152.42188 23.190624 153.71875 23.190624Q154.28125 23.190624 154.75 23.39375Q155.23438 23.596874 155.46875 23.925Q155.70312 24.253124 155.79688 24.690624Q155.84375 24.9875 155.84375 25.721874L155.84375 29.55L154.79688 29.55L154.79688 25.76875Q154.79688 25.1125 154.67188 24.8Q154.54688 24.4875 154.23438 24.3Q153.92188 24.096874 153.5 24.096874Q152.82812 24.096874 152.32812 24.534374Q151.84375 24.95625 151.84375 26.14375L151.84375 29.55L150.79688 29.55ZM157.79688 29.55L157.79688 20.95625L158.84375 20.95625L158.84375 24.034374Q159.57812 23.190624 160.70312 23.190624Q161.40625 23.190624 161.90625 23.471874Q162.42188 23.7375 162.64062 24.221874Q162.85938 24.690624 162.85938 25.6125L162.85938 29.55L161.8125 29.55L161.8125 25.6125Q161.8125 24.815624 161.46875 24.45625Q161.125 24.096874 160.5 24.096874Q160.03125 24.096874 159.60938 24.346874Q159.20312 24.58125 159.01562 25.003124Q158.84375 25.409374 158.84375 26.14375L158.84375 29.55L157.79688 29.55ZM169.04688 27.55L170.14062 27.675Q169.89062 28.628124 169.1875 29.159374Q168.48438 29.690624 167.40625 29.690624Q166.04688 29.690624 165.23438 28.846874Q164.4375 28.003124 164.4375 26.4875Q164.4375 24.925 165.25 24.065624Q166.0625 23.190624 167.34375 23.190624Q168.59375 23.190624 169.375 24.034374Q170.17188 24.878124 170.17188 26.425Q170.17188 26.51875 170.17188 26.70625L165.53125 26.70625Q165.59375 27.7375 166.10938 28.284374Q166.625 28.815624 167.40625 28.815624Q167.98438 28.815624 168.39062 28.51875Q168.8125 28.20625 169.04688 27.55ZM165.59375 25.846874L169.0625 25.846874Q169.0 25.05 168.67188 24.659374Q168.15625 24.05 167.35938 24.05Q166.625 24.05 166.125 24.534374Q165.64062 25.01875 165.59375 25.846874ZM175.85938 27.26875L176.89062 27.409374Q176.71875 28.471874 176.01562 29.08125Q175.3125 29.690624 174.29688 29.690624Q173.01562 29.690624 172.23438 28.8625Q171.46875 28.01875 171.46875 26.45625Q171.46875 25.45625 171.79688 24.70625Q172.14062 23.940624 172.8125 23.565624Q173.5 23.190624 174.3125 23.190624Q175.3125 23.190624 175.95312 23.70625Q176.60938 24.20625 176.79688 25.159374L175.76562 25.315624Q175.625 24.690624 175.25 24.378124Q174.875 24.05 174.34375 24.05Q173.54688 24.05 173.04688 24.628124Q172.54688 25.190624 172.54688 26.425Q172.54688 27.690624 173.03125 28.253124Q173.51562 28.815624 174.28125 28.815624Q174.90625 28.815624 175.3125 28.440624Q175.73438 28.065624 175.85938 27.26875ZM173.40625 30.33125L173.71875 29.284374L174.5 29.284374L174.29688 29.925Q174.79688 29.971874 175.04688 30.221874Q175.3125 30.471874 175.3125 30.784374Q175.3125 31.221874 174.89062 31.55Q174.46875 31.89375 173.60938 31.89375Q173.125 31.89375 172.76562 31.815624L172.82812 31.14375Q173.20312 31.159374 173.39062 31.159374Q173.9375 31.159374 174.15625 31.003124Q174.32812 30.89375 174.32812 30.721874Q174.32812 30.6125 174.25 30.534374Q174.1875 30.45625 174.0 30.39375Q173.82812 30.33125 173.40625 30.33125ZM177.40625 26.440624Q177.40625 24.70625 178.35938 23.878124Q179.15625 23.190624 180.3125 23.190624Q181.59375 23.190624 182.40625 24.034374Q183.23438 24.8625 183.23438 26.346874Q183.23438 27.55 182.875 28.2375Q182.51562 28.925 181.8125 29.315624Q181.125 29.690624 180.3125 29.690624Q179.01562 29.690624 178.20312 28.8625Q177.40625 28.01875 177.40625 26.440624ZM178.48438 26.440624Q178.48438 27.628124 179.0 28.221874Q179.53125 28.815624 180.3125 28.815624Q181.10938 28.815624 181.625 28.221874Q182.14062 27.628124 182.14062 26.409374Q182.14062 25.253124 181.60938 24.659374Q181.09375 24.065624 180.3125 24.065624Q179.53125 24.065624 179.0 24.659374Q178.48438 25.2375 178.48438 26.440624Z" fill-rule="nonzero"/><path fill="#4285f4" d="M200.0 20.55C200.0 19.997715 200.44771 19.55 201.0 19.55L211.0 19.55C211.55229 19.55 212.0 19.997715 212.0 20.55L212.0 30.55C212.0 31.102285 211.55229 31.55 211.0 31.55L201.0 31.55C200.44771 31.55 200.0 31.102285 200.0 30.55Z" fill-rule="nonzero"/><path fill="#1a1a1a" d="M220.54688 26.784374L221.60938 26.690624Q221.6875 27.346874 221.96875 27.753124Q222.25 28.159374 222.82812 28.425Q223.42188 28.675 224.15625 28.675Q224.79688 28.675 225.29688 28.4875Q225.79688 28.284374 226.03125 27.95625Q226.28125 27.6125 226.28125 27.221874Q226.28125 26.815624 226.04688 26.51875Q225.8125 26.20625 225.28125 26.003124Q224.92188 25.8625 223.73438 25.58125Q222.5625 25.3 222.09375 25.05Q221.46875 24.721874 221.17188 24.253124Q220.875 23.76875 220.875 23.175Q220.875 22.534374 221.23438 21.971874Q221.60938 21.39375 222.3125 21.1125Q223.03125 20.815624 223.89062 20.815624Q224.84375 20.815624 225.57812 21.128124Q226.3125 21.425 226.70312 22.034374Q227.09375 22.628124 227.125 23.378124L226.03125 23.45625Q225.9375 22.64375 225.42188 22.2375Q224.92188 21.815624 223.9375 21.815624Q222.90625 21.815624 222.4375 22.190624Q221.96875 22.565624 221.96875 23.096874Q221.96875 23.565624 222.29688 23.8625Q222.625 24.159374 224.0 24.471874Q225.39062 24.784374 225.90625 25.01875Q226.65625 25.378124 227.01562 25.909374Q227.375 26.425 227.375 27.128124Q227.375 27.815624 226.98438 28.425Q226.59375 29.01875 225.85938 29.3625Q225.125 29.690624 224.20312 29.690624Q223.03125 29.690624 222.23438 29.3625Q221.45312 29.01875 221.0 28.33125Q220.5625 27.64375 220.54688 26.784374ZM228.40625 26.440624Q228.40625 24.70625 229.35938 23.878124Q230.15625 23.190624 231.3125 23.190624Q232.59375 23.190624 233.40625 24.034374Q234.23438 24.8625 234.23438 26.346874Q234.23438 27.55 233.875 28.2375Q233.51562 28.925 232.8125 29.315624Q232.125 29.690624 231.3125 29.690624Q230.01562 29.690624 229.20312 28.8625Q228.40625 28.01875 228.40625 26.440624ZM229.48438 26.440624Q229.48438 27.628124 230.0 28.221874Q230.53125 28.815624 231.3125 28.815624Q232.10938 28.815624 232.625 28.221874Q233.14062 27.628124 233.14062 26.409374Q233.14062 25.253124 232.60938 24.659374Q232.09375 24.065624 231.3125 24.065624Q230.53125 24.065624 230.0 24.659374Q229.48438 25.2375 229.48438 26.440624ZM230.73438 22.55L231.51562 20.909374L232.90625 20.909374L231.60938 22.55L230.73438 22.55ZM238.40625 26.440624Q238.40625 24.70625 239.35938 23.878124Q240.15625 23.190624 241.3125 23.190624Q242.59375 23.190624 243.40625 24.034374Q244.23438 24.8625 244.23438 26.346874Q244.23438 27.55 243.875 28.2375Q243.51562 28.925 242.8125 29.315624Q242.125 29.690624 241.3125 29.690624Q240.01562 29.690624 239.20312 28.8625Q238.40625 28.01875 238.40625 26.440624ZM239.48438 26.440624Q239.48438 27.628124 240.0 28.221874Q240.53125 28.815624 241.3125 28.815624Q242.10938 28.815624 242.625 28.221874Q243.14062 27.628124 243.14062 26.409374Q243.14062 25.253124 242.60938 24.659374Q242.09375 24.065624 241.3125 24.065624Q240.53125 24.065624 240.0 24.659374Q239.48438 25.2375 239.48438 26.440624ZM249.875 29.55L249.875 28.628124Q249.14062 29.690624 247.89062 29.690624Q247.34375 29.690624 246.85938 29.4875Q246.39062 29.26875 246.15625 28.95625Q245.92188 28.628124 245.82812 28.159374Q245.76562 27.8625 245.76562 27.175L245.76562 23.33125L246.82812 23.33125L246.82812 26.784374Q246.82812 27.596874 246.89062 27.89375Q246.98438 28.3 247.29688 28.55Q247.625 28.784374 248.10938 28.784374Q248.57812 28.784374 248.98438 28.55Q249.40625 28.3 249.57812 27.878124Q249.76562 27.45625 249.76562 26.659374L249.76562 23.33125L250.8125 23.33125L250.8125 29.55L249.875 29.55ZM254.51562 29.55L252.15625 23.33125L253.26562 23.33125L254.60938 27.05Q254.8125 27.659374 255.0 28.3Q255.14062 27.815624 255.39062 27.128124L256.78125 23.33125L257.85938 23.33125L255.5 29.55L254.51562 29.55ZM257.79688 22.175L257.79688 20.95625L258.85938 20.95625L258.85938 22.175L257.79688 22.175ZM257.79688 29.55L257.79688 23.33125L258.85938 23.33125L258.85938 29.55L257.79688 29.55ZM264.04688 29.55L264.04688 24.14375L263.10938 24.14375L263.10938 23.33125L264.04688 23.33125L264.04688 22.659374Q264.04688 22.034374 264.15625 21.7375Q264.3125 21.315624 264.6875 21.065624Q265.07812 20.815624 265.76562 20.815624Q266.21875 20.815624 266.75 20.925L266.59375 21.83125Q266.26562 21.784374 265.96875 21.784374Q265.48438 21.784374 265.28125 21.9875Q265.09375 22.190624 265.09375 22.753124L265.09375 23.33125L266.3125 23.33125L266.3125 24.14375L265.09375 24.14375L265.09375 29.55L264.04688 29.55ZM270.85938 28.784374Q270.26562 29.284374 269.71875 29.4875Q269.1875 29.690624 268.5625 29.690624Q267.53125 29.690624 266.98438 29.190624Q266.4375 28.690624 266.4375 27.909374Q266.4375 27.45625 266.64062 27.08125Q266.84375 26.690624 267.1875 26.471874Q267.53125 26.2375 267.95312 26.128124Q268.25 26.034374 268.89062 25.95625Q270.15625 25.815624 270.76562 25.596874Q270.76562 25.378124 270.76562 25.33125Q270.76562 24.675 270.46875 24.409374Q270.0625 24.065624 269.26562 24.065624Q268.53125 24.065624 268.17188 24.33125Q267.8125 24.58125 267.64062 25.2375L266.60938 25.096874Q266.75 24.440624 267.07812 24.034374Q267.40625 23.628124 268.01562 23.409374Q268.625 23.190624 269.42188 23.190624Q270.21875 23.190624 270.71875 23.378124Q271.21875 23.565624 271.45312 23.846874Q271.6875 24.128124 271.78125 24.565624Q271.82812 24.83125 271.82812 25.534374L271.82812 26.940624Q271.82812 28.409374 271.89062 28.8Q271.96875 29.190624 272.17188 29.55L271.0625 29.55Q270.90625 29.221874 270.85938 28.784374ZM270.76562 26.425Q270.1875 26.659374 269.04688 26.83125Q268.39062 26.925 268.125 27.05Q267.85938 27.159374 267.70312 27.378124Q267.5625 27.596874 267.5625 27.878124Q267.5625 28.3 267.875 28.58125Q268.20312 28.8625 268.8125 28.8625Q269.42188 28.8625 269.89062 28.596874Q270.375 28.33125 270.59375 27.8625Q270.76562 27.503124 270.76562 26.815624L270.76562 26.425ZM273.76562 29.55L273.76562 20.95625L274.82812 20.95625L274.82812 29.55L273.76562 29.55ZM280.85938 28.784374Q280.26562 29.284374 279.71875 29.4875Q279.1875 29.690624 278.5625 29.690624Q277.53125 29.690624 276.98438 29.190624Q276.4375 28.690624 276.4375 27.909374Q276.4375 27.45625 276.64062 27.08125Q276.84375 26.690624 277.1875 26.471874Q277.53125 26.2375 277.95312 26.128124Q278.25 26.034374 278.89062 25.95625Q280.15625 25.815624 280.76562 25.596874Q280.76562 25.378124 280.76562 25.33125Q280.76562 24.675 280.46875 24.409374Q280.0625 24.065624 279.26562 24.065624Q278.53125 24.065624 278.17188 24.33125Q277.8125 24.58125 277.64062 25.2375L276.60938 25.096874Q276.75 24.440624 277.07812 24.034374Q277.40625 23.628124 278.01562 23.409374Q278.625 23.190624 279.42188 23.190624Q280.21875 23.190624 280.71875 23.378124Q281.21875 23.565624 281.45312 23.846874Q281.6875 24.128124 281.78125 24.565624Q281.82812 24.83125 281.82812 25.534374L281.82812 26.940624Q281.82812 28.409374 281.89062 28.8Q281.96875 29.190624 282.17188 29.55L281.0625 29.55Q280.90625 29.221874 280.85938 28.784374ZM280.76562 26.425Q280.1875 26.659374 279.04688 26.83125Q278.39062 26.925 278.125 27.05Q277.85938 27.159374 277.70312 27.378124Q277.5625 27.596874 277.5625 27.878124Q277.5625 28.3 277.875 28.58125Q278.20312 28.8625 278.8125 28.8625Q279.42188 28.8625 279.89062 28.596874Q280.375 28.33125 280.59375 27.8625Q280.76562 27.503124 280.76562 26.815624L280.76562 26.425ZM283.78125 29.55L283.78125 23.33125L284.73438 23.33125L284.73438 24.26875Q285.09375 23.6125 285.39062 23.409374Q285.70312 23.190624 286.07812 23.190624Q286.60938 23.190624 287.15625 23.51875L286.79688 24.503124Q286.40625 24.26875 286.03125 24.26875Q285.67188 24.26875 285.39062 24.4875Q285.125 24.690624 285.01562 25.065624Q284.82812 25.628124 284.82812 26.284374L284.82812 29.55L283.78125 29.55ZM290.40625 26.440624Q290.40625 24.70625 291.35938 23.878124Q292.15625 23.190624 293.3125 23.190624Q294.59375 23.190624 295.40625 24.034374Q296.23438 24.8625 296.23438 26.346874Q296.23438 27.55 295.875 28.2375Q295.51562 28.925 294.8125 29.315624Q294.125 29.690624 293.3125 29.690624Q292.01562 29.690624 291.20312 28.8625Q290.40625 28.01875 290.40625 26.440624ZM291.48438 26.440624Q291.48438 27.628124 292.0 28.221874Q292.53125 28.815624 293.3125 28.815624Q294.10938 28.815624 294.625 28.221874Q295.14062 27.628124 295.14062 26.409374Q295.14062 25.253124 294.60938 24.659374Q294.09375 24.065624 293.3125 24.065624Q292.53125 24.065624 292.0 24.659374Q291.48438 25.2375 291.48438 26.440624ZM301.875 29.55L301.875 28.628124Q301.14062 29.690624 299.89062 29.690624Q299.34375 29.690624 298.85938 29.4875Q298.39062 29.26875 298.15625 28.95625Q297.92188 28.628124 297.82812 28.159374Q297.76562 27.8625 297.76562 27.175L297.76562 23.33125L298.82812 23.33125L298.82812 26.784374Q298.82812 27.596874 298.89062 27.89375Q298.98438 28.3 299.29688 28.55Q299.625 28.784374 300.10938 28.784374Q300.57812 28.784374 300.98438 28.55Q301.40625 28.3 301.57812 27.878124Q301.76562 27.45625 301.76562 26.659374L301.76562 23.33125L302.8125 23.33125L302.8125 29.55L301.875 29.55ZM312.04688 27.55L313.14062 27.675Q312.89062 28.628124 312.1875 29.159374Q311.48438 29.690624 310.40625 29.690624Q309.04688 29.690624 308.23438 28.846874Q307.4375 28.003124 307.4375 26.4875Q307.4375 24.925 308.25 24.065624Q309.0625 23.190624 310.34375 23.190624Q311.59375 23.190624 312.375 24.034374Q313.17188 24.878124 313.17188 26.425Q313.17188 26.51875 313.17188 26.70625L308.53125 26.70625Q308.59375 27.7375 309.10938 28.284374Q309.625 28.815624 310.40625 28.815624Q310.98438 28.815624 311.39062 28.51875Q311.8125 28.20625 312.04688 27.55ZM308.59375 25.846874L312.0625 25.846874Q312.0 25.05 311.67188 24.659374Q311.15625 24.05 310.35938 24.05Q309.625 24.05 309.125 24.534374Q308.64062 25.01875 308.59375 25.846874ZM314.375 27.690624L315.40625 27.534374Q315.5 28.159374 315.89062 28.4875Q316.29688 28.815624 317.03125 28.815624Q317.75 28.815624 318.09375 28.534374Q318.45312 28.2375 318.45312 27.83125Q318.45312 27.471874 318.14062 27.26875Q317.92188 27.128124 317.0625 26.909374Q315.90625 26.6125 315.45312 26.409374Q315.01562 26.190624 314.78125 25.815624Q314.54688 25.440624 314.54688 24.971874Q314.54688 24.565624 314.73438 24.20625Q314.92188 23.846874 315.25 23.6125Q315.5 23.440624 315.92188 23.315624Q316.34375 23.190624 316.84375 23.190624Q317.5625 23.190624 318.10938 23.409374Q318.67188 23.6125 318.9375 23.971874Q319.20312 24.33125 319.29688 24.925L318.26562 25.065624Q318.20312 24.596874 317.85938 24.33125Q317.53125 24.05 316.90625 24.05Q316.1875 24.05 315.875 24.3Q315.5625 24.534374 315.5625 24.8625Q315.5625 25.065624 315.6875 25.221874Q315.82812 25.39375 316.09375 25.503124Q316.25 25.565624 317.03125 25.76875Q318.15625 26.08125 318.59375 26.26875Q319.03125 26.45625 319.28125 26.815624Q319.53125 27.175 319.53125 27.721874Q319.53125 28.253124 319.21875 28.721874Q318.92188 29.175 318.34375 29.440624Q317.76562 29.690624 317.03125 29.690624Q315.8125 29.690624 315.17188 29.190624Q314.54688 28.675 314.375 27.690624ZM324.09375 28.6125L324.25 29.534374Q323.79688 29.628124 323.45312 29.628124Q322.875 29.628124 322.5625 29.45625Q322.25 29.26875 322.10938 28.971874Q321.98438 28.675 321.98438 27.721874L321.98438 24.14375L321.21875 24.14375L321.21875 23.33125L321.98438 23.33125L321.98438 21.784374L323.03125 21.159374L323.03125 23.33125L324.09375 23.33125L324.09375 24.14375L323.03125 24.14375L323.03125 27.784374Q323.03125 28.2375 323.07812 28.3625Q323.14062 28.4875 323.26562 28.565624Q323.39062 28.64375 323.625 28.64375Q323.8125 28.64375 324.09375 28.6125ZM328.875 29.55L328.875 28.628124Q328.14062 29.690624 326.89062 29.690624Q326.34375 29.690624 325.85938 29.4875Q325.39062 29.26875 325.15625 28.95625Q324.92188 28.628124 324.82812 28.159374Q324.76562 27.8625 324.76562 27.175L324.76562 23.33125L325.82812 23.33125L325.82812 26.784374Q325.82812 27.596874 325.89062 27.89375Q325.98438 28.3 326.29688 28.55Q326.625 28.784374 327.10938 28.784374Q327.57812 28.784374 327.98438 28.55Q328.40625 28.3 328.57812 27.878124Q328.76562 27.45625 328.76562 26.659374L328.76562 23.33125L329.8125 23.33125L329.8125 29.55L328.875 29.55ZM335.82812 29.55L335.82812 28.76875Q335.23438 29.690624 334.09375 29.690624Q333.34375 29.690624 332.71875 29.284374Q332.09375 28.8625 331.75 28.128124Q331.40625 27.39375 331.40625 26.440624Q331.40625 25.51875 331.71875 24.753124Q332.03125 23.9875 332.65625 23.596874Q333.28125 23.190624 334.04688 23.190624Q334.60938 23.190624 335.04688 23.425Q335.48438 23.659374 335.76562 24.034374L335.76562 20.95625L336.8125 20.95625L336.8125 29.55L335.82812 29.55ZM332.5 26.440624Q332.5 27.64375 333.0 28.2375Q333.5 28.815624 334.1875 28.815624Q334.875 28.815624 335.35938 28.253124Q335.84375 27.690624 335.84375 26.534374Q335.84375 25.253124 335.34375 24.659374Q334.85938 24.065624 334.14062 24.065624Q333.4375 24.065624 332.96875 24.64375Q332.5 25.20625 332.5 26.440624ZM343.04688 27.55L344.14062 27.675Q343.89062 28.628124 343.1875 29.159374Q342.48438 29.690624 341.40625 29.690624Q340.04688 29.690624 339.23438 28.846874Q338.4375 28.003124 338.4375 26.4875Q338.4375 24.925 339.25 24.065624Q340.0625 23.190624 341.34375 23.190624Q342.59375 23.190624 343.375 24.034374Q344.17188 24.878124 344.17188 26.425Q344.17188 26.51875 344.17188 26.70625L339.53125 26.70625Q339.59375 27.7375 340.10938 28.284374Q340.625 28.815624 341.40625 28.815624Q341.98438 28.815624 342.39062 28.51875Q342.8125 28.20625 343.04688 27.55ZM339.59375 25.846874L343.0625 25.846874Q343.0 25.05 342.67188 24.659374Q342.15625 24.05 341.35938 24.05Q340.625 24.05 340.125 24.534374Q339.64062 25.01875 339.59375 25.846874ZM345.79688 22.175L345.79688 20.95625L346.85938 20.95625L346.85938 22.175L345.79688 22.175ZM345.79688 29.55L345.79688 23.33125L346.85938 23.33125L346.85938 29.55L345.79688 29.55Z" fill-rule="nonzero"/><path fill="#fbbc04" d="M364.0 20.55C364.0 19.997715 364.44772 19.55 365.0 19.55L375.0 19.55C375.55228 19.55 376.0 19.997715 376.0 20.55L376.0 30.55C376.0 31.102285 375.55228 31.55 375.0 31.55L365.0 31.55C364.44772 31.55 364.0 31.102285 364.0 30.55Z" fill-rule="nonzero"/><path fill="#1a1a1a" d="M390.5625 20.95625L391.70312 20.95625L391.70312 25.925Q391.70312 27.221874 391.40625 27.9875Q391.10938 28.7375 390.34375 29.221874Q389.57812 29.690624 388.34375 29.690624Q387.14062 29.690624 386.35938 29.284374Q385.59375 28.8625 385.26562 28.08125Q384.9375 27.284374 384.9375 25.925L384.9375 20.95625L386.07812 20.95625L386.07812 25.909374Q386.07812 27.034374 386.28125 27.565624Q386.5 28.096874 387.0 28.39375Q387.51562 28.675 388.25 28.675Q389.5 28.675 390.03125 28.1125Q390.5625 27.534374 390.5625 25.909374L390.5625 20.95625ZM396.09375 28.6125L396.25 29.534374Q395.79688 29.628124 395.45312 29.628124Q394.875 29.628124 394.5625 29.45625Q394.25 29.26875 394.10938 28.971874Q393.98438 28.675 393.98438 27.721874L393.98438 24.14375L393.21875 24.14375L393.21875 23.33125L393.98438 23.33125L393.98438 21.784374L395.03125 21.159374L395.03125 23.33125L396.09375 23.33125L396.09375 24.14375L395.03125 24.14375L395.03125 27.784374Q395.03125 28.2375 395.07812 28.3625Q395.14062 28.4875 395.26562 28.565624Q395.39062 28.64375 395.625 28.64375Q395.8125 28.64375 396.09375 28.6125ZM396.79688 22.175L396.79688 20.95625L397.85938 20.95625L397.85938 22.175L396.79688 22.175ZM396.79688 29.55L396.79688 23.33125L397.85938 23.33125L397.85938 29.55L396.79688 29.55ZM399.76562 29.55L399.76562 20.95625L400.82812 20.95625L400.82812 29.55L399.76562 29.55ZM402.79688 22.175L402.79688 20.95625L403.85938 20.95625L403.85938 22.175L402.79688 22.175ZM402.79688 29.55L402.79688 23.33125L403.85938 23.33125L403.85938 29.55L402.79688 29.55ZM405.23438 29.55L405.23438 28.690624L409.20312 24.14375Q408.51562 24.175 408.0 24.175L405.46875 24.175L405.46875 23.33125L410.5625 23.33125L410.5625 24.01875L407.1875 27.971874L406.53125 28.690624Q407.25 28.64375 407.85938 28.64375L410.75 28.64375L410.75 29.55L405.23438 29.55ZM410.40625 26.440624Q410.40625 24.70625 411.35938 23.878124Q412.15625 23.190624 413.3125 23.190624Q414.59375 23.190624 415.40625 24.034374Q416.23438 24.8625 416.23438 26.346874Q416.23438 27.55 415.875 28.2375Q415.51562 28.925 414.8125 29.315624Q414.125 29.690624 413.3125 29.690624Q412.01562 29.690624 411.20312 28.8625Q410.40625 28.01875 410.40625 26.440624ZM411.48438 26.440624Q411.48438 27.628124 412.0 28.221874Q412.53125 28.815624 413.3125 28.815624Q414.10938 28.815624 414.625 28.221874Q415.14062 27.628124 415.14062 26.409374Q415.14062 25.253124 414.60938 24.659374Q414.09375 24.065624 413.3125 24.065624Q412.53125 24.065624 412.0 24.659374Q411.48438 25.2375 411.48438 26.440624ZM420.40625 26.440624Q420.40625 24.70625 421.35938 23.878124Q422.15625 23.190624 423.3125 23.190624Q424.59375 23.190624 425.40625 24.034374Q426.23438 24.8625 426.23438 26.346874Q426.23438 27.55 425.875 28.2375Q425.51562 28.925 424.8125 29.315624Q424.125 29.690624 423.3125 29.690624Q422.01562 29.690624 421.20312 28.8625Q420.40625 28.01875 420.40625 26.440624ZM421.48438 26.440624Q421.48438 27.628124 422.0 28.221874Q422.53125 28.815624 423.3125 28.815624Q424.10938 28.815624 424.625 28.221874Q425.14062 27.628124 425.14062 26.409374Q425.14062 25.253124 424.60938 24.659374Q424.09375 24.065624 423.3125 24.065624Q422.53125 24.065624 422.0 24.659374Q421.48438 25.2375 421.48438 26.440624ZM431.85938 27.26875L432.89062 27.409374Q432.71875 28.471874 432.01562 29.08125Q431.3125 29.690624 430.29688 29.690624Q429.01562 29.690624 428.23438 28.8625Q427.46875 28.01875 427.46875 26.45625Q427.46875 25.45625 427.79688 24.70625Q428.14062 23.940624 428.8125 23.565624Q429.5 23.190624 430.3125 23.190624Q431.3125 23.190624 431.95312 23.70625Q432.60938 24.20625 432.79688 25.159374L431.76562 25.315624Q431.625 24.690624 431.25 24.378124Q430.875 24.05 430.34375 24.05Q429.54688 24.05 429.04688 24.628124Q428.54688 25.190624 428.54688 26.425Q428.54688 27.690624 429.03125 28.253124Q429.51562 28.815624 430.28125 28.815624Q430.90625 28.815624 431.3125 28.440624Q431.73438 28.065624 431.85938 27.26875ZM437.85938 28.784374Q437.26562 29.284374 436.71875 29.4875Q436.1875 29.690624 435.5625 29.690624Q434.53125 29.690624 433.98438 29.190624Q433.4375 28.690624 433.4375 27.909374Q433.4375 27.45625 433.64062 27.08125Q433.84375 26.690624 434.1875 26.471874Q434.53125 26.2375 434.95312 26.128124Q435.25 26.034374 435.89062 25.95625Q437.15625 25.815624 437.76562 25.596874Q437.76562 25.378124 437.76562 25.33125Q437.76562 24.675 437.46875 24.409374Q437.0625 24.065624 436.26562 24.065624Q435.53125 24.065624 435.17188 24.33125Q434.8125 24.58125 434.64062 25.2375L433.60938 25.096874Q433.75 24.440624 434.07812 24.034374Q434.40625 23.628124 435.01562 23.409374Q435.625 23.190624 436.42188 23.190624Q437.21875 23.190624 437.71875 23.378124Q438.21875 23.565624 438.45312 23.846874Q438.6875 24.128124 438.78125 24.565624Q438.82812 24.83125 438.82812 25.534374L438.82812 26.940624Q438.82812 28.409374 438.89062 28.8Q438.96875 29.190624 439.17188 29.55L438.0625 29.55Q437.90625 29.221874 437.85938 28.784374ZM437.76562 26.425Q437.1875 26.659374 436.04688 26.83125Q435.39062 26.925 435.125 27.05Q434.85938 27.159374 434.70312 27.378124Q434.5625 27.596874 434.5625 27.878124Q434.5625 28.3 434.875 28.58125Q435.20312 28.8625 435.8125 28.8625Q436.42188 28.8625 436.89062 28.596874Q437.375 28.33125 437.59375 27.8625Q437.76562 27.503124 437.76562 26.815624L437.76562 26.425ZM440.375 27.690624L441.40625 27.534374Q441.5 28.159374 441.89062 28.4875Q442.29688 28.815624 443.03125 28.815624Q443.75 28.815624 444.09375 28.534374Q444.45312 28.2375 444.45312 27.83125Q444.45312 27.471874 444.14062 27.26875Q443.92188 27.128124 443.0625 26.909374Q441.90625 26.6125 441.45312 26.409374Q441.01562 26.190624 440.78125 25.815624Q440.54688 25.440624 440.54688 24.971874Q440.54688 24.565624 440.73438 24.20625Q440.92188 23.846874 441.25 23.6125Q441.5 23.440624 441.92188 23.315624Q442.34375 23.190624 442.84375 23.190624Q443.5625 23.190624 444.10938 23.409374Q444.67188 23.6125 444.9375 23.971874Q445.20312 24.33125 445.29688 24.925L444.26562 25.065624Q444.20312 24.596874 443.85938 24.33125Q443.53125 24.05 442.90625 24.05Q442.1875 24.05 441.875 24.3Q441.5625 24.534374 441.5625 24.8625Q441.5625 25.065624 441.6875 25.221874Q441.82812 25.39375 442.09375 25.503124Q442.25 25.565624 443.03125 25.76875Q444.15625 26.08125 444.59375 26.26875Q445.03125 26.45625 445.28125 26.815624Q445.53125 27.175 445.53125 27.721874Q445.53125 28.253124 445.21875 28.721874Q444.92188 29.175 444.34375 29.440624Q443.76562 29.690624 443.03125 29.690624Q441.8125 29.690624 441.17188 29.190624Q440.54688 28.675 440.375 27.690624ZM447.79688 22.175L447.79688 20.95625L448.85938 20.95625L448.85938 22.175L447.79688 22.175ZM447.79688 29.55L447.79688 23.33125L448.85938 23.33125L448.85938 29.55L447.79688 29.55ZM450.40625 26.440624Q450.40625 24.70625 451.35938 23.878124Q452.15625 23.190624 453.3125 23.190624Q454.59375 23.190624 455.40625 24.034374Q456.23438 24.8625 456.23438 26.346874Q456.23438 27.55 455.875 28.2375Q455.51562 28.925 454.8125 29.315624Q454.125 29.690624 453.3125 29.690624Q452.01562 29.690624 451.20312 28.8625Q450.40625 28.01875 450.40625 26.440624ZM451.48438 26.440624Q451.48438 27.628124 452.0 28.221874Q452.53125 28.815624 453.3125 28.815624Q454.10938 28.815624 454.625 28.221874Q455.14062 27.628124 455.14062 26.409374Q455.14062 25.253124 454.60938 24.659374Q454.09375 24.065624 453.3125 24.065624Q452.53125 24.065624 452.0 24.659374Q451.48438 25.2375 451.48438 26.440624ZM457.79688 29.55L457.79688 23.33125L458.73438 23.33125L458.73438 24.20625Q459.42188 23.190624 460.71875 23.190624Q461.28125 23.190624 461.75 23.39375Q462.23438 23.596874 462.46875 23.925Q462.70312 24.253124 462.79688 24.690624Q462.84375 24.9875 462.84375 25.721874L462.84375 29.55L461.79688 29.55L461.79688 25.76875Q461.79688 25.1125 461.67188 24.8Q461.54688 24.4875 461.23438 24.3Q460.92188 24.096874 460.5 24.096874Q459.82812 24.096874 459.32812 24.534374Q458.84375 24.95625 458.84375 26.14375L458.84375 29.55L457.79688 29.55ZM468.85938 28.784374Q468.26562 29.284374 467.71875 29.4875Q467.1875 29.690624 466.5625 29.690624Q465.53125 29.690624 464.98438 29.190624Q464.4375 28.690624 464.4375 27.909374Q464.4375 27.45625 464.64062 27.08125Q464.84375 26.690624 465.1875 26.471874Q465.53125 26.2375 465.95312 26.128124Q466.25 26.034374 466.89062 25.95625Q468.15625 25.815624 468.76562 25.596874Q468.76562 25.378124 468.76562 25.33125Q468.76562 24.675 468.46875 24.409374Q468.0625 24.065624 467.26562 24.065624Q466.53125 24.065624 466.17188 24.33125Q465.8125 24.58125 465.64062 25.2375L464.60938 25.096874Q464.75 24.440624 465.07812 24.034374Q465.40625 23.628124 466.01562 23.409374Q466.625 23.190624 467.42188 23.190624Q468.21875 23.190624 468.71875 23.378124Q469.21875 23.565624 469.45312 23.846874Q469.6875 24.128124 469.78125 24.565624Q469.82812 24.83125 469.82812 25.534374L469.82812 26.940624Q469.82812 28.409374 469.89062 28.8Q469.96875 29.190624 470.17188 29.55L469.0625 29.55Q468.90625 29.221874 468.85938 28.784374ZM468.76562 26.425Q468.1875 26.659374 467.04688 26.83125Q466.39062 26.925 466.125 27.05Q465.85938 27.159374 465.70312 27.378124Q465.5625 27.596874 465.5625 27.878124Q465.5625 28.3 465.875 28.58125Q466.20312 28.8625 466.8125 28.8625Q467.42188 28.8625 467.89062 28.596874Q468.375 28.33125 468.59375 27.8625Q468.76562 27.503124 468.76562 26.815624L468.76562 26.425ZM471.76562 29.55L471.76562 20.95625L472.82812 20.95625L472.82812 29.55L471.76562 29.55ZM474.79688 29.55L474.79688 23.33125L475.73438 23.33125L475.73438 24.20625Q476.03125 23.7375 476.51562 23.471874Q477.0 23.190624 477.625 23.190624Q478.3125 23.190624 478.75 23.471874Q479.20312 23.753124 479.375 24.26875Q480.125 23.190624 481.29688 23.190624Q482.23438 23.190624 482.71875 23.70625Q483.21875 24.20625 483.21875 25.284374L483.21875 29.55L482.17188 29.55L482.17188 25.628124Q482.17188 25.003124 482.0625 24.721874Q481.96875 24.440624 481.70312 24.26875Q481.4375 24.096874 481.0625 24.096874Q480.40625 24.096874 479.96875 24.534374Q479.54688 24.971874 479.54688 25.940624L479.54688 29.55L478.48438 29.55L478.48438 25.503124Q478.48438 24.8 478.21875 24.45625Q477.96875 24.096874 477.39062 24.096874Q476.9375 24.096874 476.5625 24.33125Q476.1875 24.565624 476.01562 25.01875Q475.84375 25.471874 475.84375 26.315624L475.84375 29.55L474.79688 29.55ZM490.04688 27.55L491.14062 27.675Q490.89062 28.628124 490.1875 29.159374Q489.48438 29.690624 488.40625 29.690624Q487.04688 29.690624 486.23438 28.846874Q485.4375 28.003124 485.4375 26.4875Q485.4375 24.925 486.25 24.065624Q487.0625 23.190624 488.34375 23.190624Q489.59375 23.190624 490.375 24.034374Q491.17188 24.878124 491.17188 26.425Q491.17188 26.51875 491.17188 26.70625L486.53125 26.70625Q486.59375 27.7375 487.10938 28.284374Q487.625 28.815624 488.40625 28.815624Q488.98438 28.815624 489.39062 28.51875Q489.8125 28.20625 490.04688 27.55ZM486.59375 25.846874L490.0625 25.846874Q490.0 25.05 489.67188 24.659374Q489.15625 24.05 488.35938 24.05Q487.625 24.05 487.125 24.534374Q486.64062 25.01875 486.59375 25.846874ZM492.79688 29.55L492.79688 23.33125L493.73438 23.33125L493.73438 24.20625Q494.42188 23.190624 495.71875 23.190624Q496.28125 23.190624 496.75 23.39375Q497.23438 23.596874 497.46875 23.925Q497.70312 24.253124 497.79688 24.690624Q497.84375 24.9875 497.84375 25.721874L497.84375 29.55L496.79688 29.55L496.79688 25.76875Q496.79688 25.1125 496.67188 24.8Q496.54688 24.4875 496.23438 24.3Q495.92188 24.096874 495.5 24.096874Q494.82812 24.096874 494.32812 24.534374Q493.84375 24.95625 493.84375 26.14375L493.84375 29.55L492.79688 29.55ZM502.09375 28.6125L502.25 29.534374Q501.79688 29.628124 501.45312 29.628124Q500.875 29.628124 500.5625 29.45625Q500.25 29.26875 500.10938 28.971874Q499.98438 28.675 499.98438 27.721874L499.98438 24.14375L499.21875 24.14375L499.21875 23.33125L499.98438 23.33125L499.98438 21.784374L501.03125 21.159374L501.03125 23.33125L502.09375 23.33125L502.09375 24.14375L501.03125 24.14375L501.03125 27.784374Q501.03125 28.2375 501.07812 28.3625Q501.14062 28.4875 501.26562 28.565624Q501.39062 28.64375 501.625 28.64375Q501.8125 28.64375 502.09375 28.6125ZM507.04688 27.55L508.14062 27.675Q507.89062 28.628124 507.1875 29.159374Q506.48438 29.690624 505.40625 29.690624Q504.04688 29.690624 503.23438 28.846874Q502.4375 28.003124 502.4375 26.4875Q502.4375 24.925 503.25 24.065624Q504.0625 23.190624 505.34375 23.190624Q506.59375 23.190624 507.375 24.034374Q508.17188 24.878124 508.17188 26.425Q508.17188 26.51875 508.17188 26.70625L503.53125 26.70625Q503.59375 27.7375 504.10938 28.284374Q504.625 28.815624 505.40625 28.815624Q505.98438 28.815624 506.39062 28.51875Q506.8125 28.20625 507.04688 27.55ZM503.59375 25.846874L507.0625 25.846874Q507.0 25.05 506.67188 24.659374Q506.15625 24.05 505.35938 24.05Q504.625 24.05 504.125 24.534374Q503.64062 25.01875 503.59375 25.846874Z" fill-rule="nonzero"/><path fill="#34a853" d="M229.5 38.55C229.5 37.997715 229.94771 37.55 230.5 37.55L240.5 37.55C241.05229 37.55 241.5 37.997715 241.5 38.55L241.5 48.55C241.5 49.102283 241.05229 49.55 240.5 49.55L230.5 49.55C229.94771 49.55 229.5 49.102283 229.5 48.55Z" fill-rule="nonzero"/><path fill="#1a1a1a" d="M256.0625 38.95625L257.20312 38.95625L257.20312 43.925Q257.20312 45.221874 256.90625 45.9875Q256.60938 46.7375 255.84375 47.221874Q255.07812 47.690624 253.84375 47.690624Q252.64062 47.690624 251.85938 47.284374Q251.09375 46.8625 250.76562 46.08125Q250.4375 45.284374 250.4375 43.925L250.4375 38.95625L251.57812 38.95625L251.57812 43.909374Q251.57812 45.034374 251.78125 45.565624Q252.0 46.096874 252.5 46.39375Q253.01562 46.675 253.75 46.675Q255.0 46.675 255.53125 46.1125Q256.0625 45.534374 256.0625 43.909374L256.0625 38.95625ZM261.59375 46.6125L261.75 47.534374Q261.29688 47.628124 260.95312 47.628124Q260.375 47.628124 260.0625 47.45625Q259.75 47.26875 259.60938 46.971874Q259.48438 46.675 259.48438 45.721874L259.48438 42.14375L258.71875 42.14375L258.71875 41.33125L259.48438 41.33125L259.48438 39.784374L260.53125 39.159374L260.53125 41.33125L261.59375 41.33125L261.59375 42.14375L260.53125 42.14375L260.53125 45.784374Q260.53125 46.2375 260.57812 46.3625Q260.64062 46.4875 260.76562 46.565624Q260.89062 46.64375 261.125 46.64375Q261.3125 46.64375 261.59375 46.6125ZM262.29688 40.175L262.29688 38.95625L263.35938 38.95625L263.35938 40.175L262.29688 40.175ZM262.29688 47.55L262.29688 41.33125L263.35938 41.33125L263.35938 47.55L262.29688 47.55ZM265.26562 47.55L265.26562 38.95625L266.32812 38.95625L266.32812 47.55L265.26562 47.55ZM268.29688 40.175L268.29688 38.95625L269.35938 38.95625L269.35938 40.175L268.29688 40.175ZM268.29688 47.55L268.29688 41.33125L269.35938 41.33125L269.35938 47.55L268.29688 47.55ZM270.73438 47.55L270.73438 46.690624L274.70312 42.14375Q274.01562 42.175 273.5 42.175L270.96875 42.175L270.96875 41.33125L276.0625 41.33125L276.0625 42.01875L272.6875 45.971874L272.03125 46.690624Q272.75 46.64375 273.35938 46.64375L276.25 46.64375L276.25 47.55L270.73438 47.55ZM275.90625 44.440624Q275.90625 42.70625 276.85938 41.878124Q277.65625 41.190624 278.8125 41.190624Q280.09375 41.190624 280.90625 42.034374Q281.73438 42.8625 281.73438 44.346874Q281.73438 45.55 281.375 46.2375Q281.01562 46.925 280.3125 47.315624Q279.625 47.690624 278.8125 47.690624Q277.51562 47.690624 276.70312 46.8625Q275.90625 46.01875 275.90625 44.440624ZM276.98438 44.440624Q276.98438 45.628124 277.5 46.221874Q278.03125 46.815624 278.8125 46.815624Q279.60938 46.815624 280.125 46.221874Q280.64062 45.628124 280.64062 44.409374Q280.64062 43.253124 280.10938 42.659374Q279.59375 42.065624 278.8125 42.065624Q278.03125 42.065624 277.5 42.659374Q276.98438 43.2375 276.98438 44.440624ZM290.35938 45.26875L291.39062 45.409374Q291.21875 46.471874 290.51562 47.08125Q289.8125 47.690624 288.79688 47.690624Q287.51562 47.690624 286.73438 46.8625Q285.96875 46.01875 285.96875 44.45625Q285.96875 43.45625 286.29688 42.70625Q286.64062 41.940624 287.3125 41.565624Q288.0 41.190624 288.8125 41.190624Q289.8125 41.190624 290.45312 41.70625Q291.10938 42.20625 291.29688 43.159374L290.26562 43.315624Q290.125 42.690624 289.75 42.378124Q289.375 42.05 288.84375 42.05Q288.04688 42.05 287.54688 42.628124Q287.04688 43.190624 287.04688 44.425Q287.04688 45.690624 287.53125 46.253124Q288.01562 46.815624 288.78125 46.815624Q289.40625 46.815624 289.8125 46.440624Q290.23438 46.065624 290.35938 45.26875ZM291.90625 44.440624Q291.90625 42.70625 292.85938 41.878124Q293.65625 41.190624 294.8125 41.190624Q296.09375 41.190624 296.90625 42.034374Q297.73438 42.8625 297.73438 44.346874Q297.73438 45.55 297.375 46.2375Q297.01562 46.925 296.3125 47.315624Q295.625 47.690624 294.8125 47.690624Q293.51562 47.690624 292.70312 46.8625Q291.90625 46.01875 291.90625 44.440624ZM292.98438 44.440624Q292.98438 45.628124 293.5 46.221874Q294.03125 46.815624 294.8125 46.815624Q295.60938 46.815624 296.125 46.221874Q296.64062 45.628124 296.64062 44.409374Q296.64062 43.253124 296.10938 42.659374Q295.59375 42.065624 294.8125 42.065624Q294.03125 42.065624 293.5 42.659374Q292.98438 43.2375 292.98438 44.440624ZM299.29688 47.55L299.29688 41.33125L300.23438 41.33125L300.23438 42.20625Q300.53125 41.7375 301.01562 41.471874Q301.5 41.190624 302.125 41.190624Q302.8125 41.190624 303.25 41.471874Q303.70312 41.753124 303.875 42.26875Q304.625 41.190624 305.79688 41.190624Q306.73438 41.190624 307.21875 41.70625Q307.71875 42.20625 307.71875 43.284374L307.71875 47.55L306.67188 47.55L306.67188 43.628124Q306.67188 43.003124 306.5625 42.721874Q306.46875 42.440624 306.20312 42.26875Q305.9375 42.096874 305.5625 42.096874Q304.90625 42.096874 304.46875 42.534374Q304.04688 42.971874 304.04688 43.940624L304.04688 47.55L302.98438 47.55L302.98438 43.503124Q302.98438 42.8 302.71875 42.45625Q302.46875 42.096874 301.89062 42.096874Q301.4375 42.096874 301.0625 42.33125Q300.6875 42.565624 300.51562 43.01875Q300.34375 43.471874 300.34375 44.315624L300.34375 47.55L299.29688 47.55ZM313.54688 47.55L313.54688 42.14375L312.60938 42.14375L312.60938 41.33125L313.54688 41.33125L313.54688 40.659374Q313.54688 40.034374 313.65625 39.7375Q313.8125 39.315624 314.1875 39.065624Q314.57812 38.815624 315.26562 38.815624Q315.71875 38.815624 316.25 38.925L316.09375 39.83125Q315.76562 39.784374 315.46875 39.784374Q314.98438 39.784374 314.78125 39.9875Q314.59375 40.190624 314.59375 40.753124L314.59375 41.33125L315.8125 41.33125L315.8125 42.14375L314.59375 42.14375L314.59375 47.55L313.54688 47.55ZM316.28125 47.55L316.28125 41.33125L317.23438 41.33125L317.23438 42.26875Q317.59375 41.6125 317.89062 41.409374Q318.20312 41.190624 318.57812 41.190624Q319.10938 41.190624 319.65625 41.51875L319.29688 42.503124Q318.90625 42.26875 318.53125 42.26875Q318.17188 42.26875 317.89062 42.4875Q317.625 42.690624 317.51562 43.065624Q317.32812 43.628124 317.32812 44.284374L317.32812 47.55L316.28125 47.55ZM324.54688 45.55L325.64062 45.675Q325.39062 46.628124 324.6875 47.159374Q323.98438 47.690624 322.90625 47.690624Q321.54688 47.690624 320.73438 46.846874Q319.9375 46.003124 319.9375 44.4875Q319.9375 42.925 320.75 42.065624Q321.5625 41.190624 322.84375 41.190624Q324.09375 41.190624 324.875 42.034374Q325.67188 42.878124 325.67188 44.425Q325.67188 44.51875 325.67188 44.70625L321.03125 44.70625Q321.09375 45.7375 321.60938 46.284374Q322.125 46.815624 322.90625 46.815624Q323.48438 46.815624 323.89062 46.51875Q324.3125 46.20625 324.54688 45.55ZM321.09375 43.846874L324.5625 43.846874Q324.5 43.05 324.17188 42.659374Q323.65625 42.05 322.85938 42.05Q322.125 42.05 321.625 42.534374Q321.14062 43.01875 321.09375 43.846874ZM331.26562 49.940624L331.26562 46.89375Q331.01562 47.2375 330.5625 47.471874Q330.125 47.690624 329.625 47.690624Q328.51562 47.690624 327.71875 46.815624Q326.92188 45.925 326.92188 44.378124Q326.92188 43.440624 327.25 42.70625Q327.57812 41.95625 328.1875 41.58125Q328.8125 41.190624 329.54688 41.190624Q330.70312 41.190624 331.35938 42.159374L331.35938 41.33125L332.3125 41.33125L332.3125 49.940624L331.26562 49.940624ZM328.0 44.425Q328.0 45.628124 328.5 46.221874Q329.01562 46.815624 329.71875 46.815624Q330.39062 46.815624 330.875 46.253124Q331.35938 45.675 331.35938 44.51875Q331.35938 43.26875 330.84375 42.64375Q330.34375 42.01875 329.64062 42.01875Q328.96875 42.01875 328.48438 42.6125Q328.0 43.190624 328.0 44.425ZM338.375 47.55L338.375 46.628124Q337.64062 47.690624 336.39062 47.690624Q335.84375 47.690624 335.35938 47.4875Q334.89062 47.26875 334.65625 46.95625Q334.42188 46.628124 334.32812 46.159374Q334.26562 45.8625 334.26562 45.175L334.26562 41.33125L335.32812 41.33125L335.32812 44.784374Q335.32812 45.596874 335.39062 45.89375Q335.48438 46.3 335.79688 46.55Q336.125 46.784374 336.60938 46.784374Q337.07812 46.784374 337.48438 46.55Q337.90625 46.3 338.07812 45.878124Q338.26562 45.45625 338.26562 44.659374L338.26562 41.33125L339.3125 41.33125L339.3125 47.55L338.375 47.55ZM345.54688 45.55L346.64062 45.675Q346.39062 46.628124 345.6875 47.159374Q344.98438 47.690624 343.90625 47.690624Q342.54688 47.690624 341.73438 46.846874Q340.9375 46.003124 340.9375 44.4875Q340.9375 42.925 341.75 42.065624Q342.5625 41.190624 343.84375 41.190624Q345.09375 41.190624 345.875 42.034374Q346.67188 42.878124 346.67188 44.425Q346.67188 44.51875 346.67188 44.70625L342.03125 44.70625Q342.09375 45.7375 342.60938 46.284374Q343.125 46.815624 343.90625 46.815624Q344.48438 46.815624 344.89062 46.51875Q345.3125 46.20625 345.54688 45.55ZM342.09375 43.846874L345.5625 43.846874Q345.5 43.05 345.17188 42.659374Q344.65625 42.05 343.85938 42.05Q343.125 42.05 342.625 42.534374Q342.14062 43.01875 342.09375 43.846874ZM343.82812 39.55L343.17188 40.55L341.95312 40.55L343.21875 38.909374L344.34375 38.909374L345.67188 40.55L344.46875 40.55L343.82812 39.55ZM348.29688 47.55L348.29688 41.33125L349.23438 41.33125L349.23438 42.20625Q349.92188 41.190624 351.21875 41.190624Q351.78125 41.190624 352.25 41.39375Q352.73438 41.596874 352.96875 41.925Q353.20312 42.253124 353.29688 42.690624Q353.34375 42.9875 353.34375 43.721874L353.34375 47.55L352.29688 47.55L352.29688 43.76875Q352.29688 43.1125 352.17188 42.8Q352.04688 42.4875 351.73438 42.3Q351.42188 42.096874 351.0 42.096874Q350.32812 42.096874 349.82812 42.534374Q349.34375 42.95625 349.34375 44.14375L349.34375 47.55L348.29688 47.55ZM359.35938 45.26875L360.39062 45.409374Q360.21875 46.471874 359.51562 47.08125Q358.8125 47.690624 357.79688 47.690624Q356.51562 47.690624 355.73438 46.8625Q354.96875 46.01875 354.96875 44.45625Q354.96875 43.45625 355.29688 42.70625Q355.64062 41.940624 356.3125 41.565624Q357.0 41.190624 357.8125 41.190624Q358.8125 41.190624 359.45312 41.70625Q360.10938 42.20625 360.29688 43.159374L359.26562 43.315624Q359.125 42.690624 358.75 42.378124Q358.375 42.05 357.84375 42.05Q357.04688 42.05 356.54688 42.628124Q356.04688 43.190624 356.04688 44.425Q356.04688 45.690624 356.53125 46.253124Q357.01562 46.815624 357.78125 46.815624Q358.40625 46.815624 358.8125 46.440624Q359.23438 46.065624 359.35938 45.26875ZM361.29688 40.175L361.29688 38.95625L362.35938 38.95625L362.35938 40.175L361.29688 40.175ZM361.29688 47.55L361.29688 41.33125L362.35938 41.33125L362.35938 47.55L361.29688 47.55ZM368.35938 46.784374Q367.76562 47.284374 367.21875 47.4875Q366.6875 47.690624 366.0625 47.690624Q365.03125 47.690624 364.48438 47.190624Q363.9375 46.690624 363.9375 45.909374Q363.9375 45.45625 364.14062 45.08125Q364.34375 44.690624 364.6875 44.471874Q365.03125 44.2375 365.45312 44.128124Q365.75 44.034374 366.39062 43.95625Q367.65625 43.815624 368.26562 43.596874Q368.26562 43.378124 368.26562 43.33125Q368.26562 42.675 367.96875 42.409374Q367.5625 42.065624 366.76562 42.065624Q366.03125 42.065624 365.67188 42.33125Q365.3125 42.58125 365.14062 43.2375L364.10938 43.096874Q364.25 42.440624 364.57812 42.034374Q364.90625 41.628124 365.51562 41.409374Q366.125 41.190624 366.92188 41.190624Q367.71875 41.190624 368.21875 41.378124Q368.71875 41.565624 368.95312 41.846874Q369.1875 42.128124 369.28125 42.565624Q369.32812 42.83125 369.32812 43.534374L369.32812 44.940624Q369.32812 46.409374 369.39062 46.8Q369.46875 47.190624 369.67188 47.55L368.5625 47.55Q368.40625 47.221874 368.35938 46.784374ZM368.26562 44.425Q367.6875 44.659374 366.54688 44.83125Q365.89062 44.925 365.625 45.05Q365.35938 45.159374 365.20312 45.378124Q365.0625 45.596874 365.0625 45.878124Q365.0625 46.3 365.375 46.58125Q365.70312 46.8625 366.3125 46.8625Q366.92188 46.8625 367.39062 46.596874Q367.875 46.33125 368.09375 45.8625Q368.26562 45.503124 368.26562 44.815624L368.26562 44.425Z" fill-rule="nonzero"/></svg>